# Blender 3.2.2
# www.blender.org
mtllib terrain_Cube_001.mtl
o Cube.001
v -5.032132 6.806218 3.988147
v -4.708576 6.564491 -4.914630
v 4.008311 6.907951 5.485329
v 2.726804 6.534974 -4.932361
v -5.773477 6.874023 2.003243
v -5.961079 6.834503 0.596038
v -5.730684 6.777740 -0.352409
v -5.498165 6.772249 -1.082816
v -5.388760 6.722617 -1.844662
v -5.380419 6.697357 -2.794697
v -5.104584 6.665426 -3.909648
v 3.672325 6.337682 -4.101500
v 4.525558 6.277585 -2.965444
v 4.910213 6.533688 -1.815465
v 4.985109 6.690355 -0.910853
v 5.041886 6.785672 -0.015629
v 4.983720 6.857977 1.937303
v 4.738058 6.966875 4.978086
v -3.659143 6.663109 -5.254664
v -2.595238 6.690356 -5.374177
v -1.726284 6.780122 -5.357430
v -0.979476 6.758827 -5.418881
v -0.232220 6.717466 -5.511586
v 0.556375 6.643906 -5.453054
v 1.518823 6.631530 -5.200810
v 2.971589 7.072247 4.722176
v 1.277007 6.876308 5.098176
v -0.208009 6.639260 5.669041
v -1.678133 6.751343 6.210290
v -2.534284 6.789168 6.569535
v -3.113440 6.731975 6.642406
v -4.003458 6.812946 5.413498
v -3.693782 6.817005 -4.117112
v -2.444203 6.832551 -3.930743
v -1.651987 6.900952 -3.728764
v -0.992027 6.927574 -3.798546
v -0.280665 6.935249 -3.958901
v 0.584786 6.916563 -3.992940
v 1.904795 6.786193 -3.992615
v -3.656068 6.731598 -2.712457
v -2.345621 6.938929 -2.178439
v -1.679749 7.017187 -1.980365
v -1.088480 7.058842 -1.987372
v -0.478183 7.074232 -2.086693
v 0.398589 7.031530 -2.201702
v 2.041273 6.952409 -2.542111
v -3.440160 6.799724 -1.518692
v -2.310980 6.987018 -1.043202
v -1.681016 7.073785 -0.862116
v -1.102459 7.140786 -0.821507
v -0.539906 7.171472 -0.908100
v 0.244517 7.153548 -1.083449
v 1.745199 7.039340 -1.323454
v -3.349818 6.842936 -0.735414
v -2.320332 6.986912 -0.295960
v -1.708325 7.074978 -0.129541
v -1.119307 7.159369 -0.107986
v -0.516678 7.209774 -0.187075
v 0.235848 7.209995 -0.344040
v 1.704601 7.103773 -0.551586
v -3.508163 6.837627 -0.112226
v -2.371989 6.965653 0.275284
v -1.730387 7.047467 0.438403
v -1.109661 7.134214 0.462946
v -0.492353 7.198931 0.384655
v 0.347736 7.213293 0.265228
v 1.929958 7.135462 0.149558
v -3.965953 6.840838 0.597624
v -2.540725 6.930464 0.819915
v -1.796987 7.006797 0.939171
v -1.130899 7.086829 0.993687
v -0.466375 7.150819 0.994948
v 0.429625 7.170943 1.033711
v 2.140161 7.195881 1.227995
v -4.510532 7.058870 2.546569
v -3.108512 7.052171 2.577912
v -2.018149 6.969402 2.147240
v -1.204843 7.016414 1.958202
v -0.370561 7.070550 2.105338
v 0.626700 7.145319 2.443744
v 2.394259 7.257575 3.725240
v -5.703996 5.001142 3.992183
v -5.201917 6.335586 4.148653
v -4.959665 5.829504 -5.094195
v -5.093479 4.441536 -5.152946
v 2.850245 6.006091 -5.056956
v 3.158958 4.558783 -5.264511
v 4.056954 6.420038 5.837652
v 4.464668 5.272164 5.459398
v 4.406740 5.657413 -4.062551
v 4.411990 4.203018 -4.301272
v 5.202705 5.561623 -2.869194
v 5.307480 4.001987 -3.067425
v 5.763774 5.610191 -1.732284
v 5.963355 4.030044 -1.843046
v 5.924165 5.784003 -0.861990
v 6.113452 4.117741 -0.795319
v 6.088932 5.954555 0.009973
v 6.373974 4.249097 0.266134
v 5.860332 6.232831 1.669753
v 6.131037 4.307894 1.659789
v 5.346709 6.307325 5.059602
v 5.287955 4.770903 4.385923
v -6.512844 6.383249 1.941650
v -6.812479 4.960747 2.114538
v -6.736779 6.269313 0.684896
v -7.003769 4.699716 0.837788
v -6.648192 6.135065 -0.313980
v -6.813585 4.574002 -0.252326
v -6.531357 6.068161 -1.137212
v -6.589636 4.447999 -1.161871
v -6.371086 6.058088 -1.861758
v -6.651483 4.359855 -2.032308
v -6.287316 5.972091 -2.705932
v -6.435326 4.363485 -3.073816
v -6.012132 5.863163 -3.802916
v -5.984263 4.385554 -4.125924
v 2.863695 6.409733 6.003999
v 2.912601 5.545938 6.289262
v 1.747225 6.245651 6.417098
v 1.432970 5.297192 6.599691
v -0.008027 6.074752 6.912234
v -0.155725 4.931738 6.994410
v -1.708621 6.118079 7.275528
v -1.717814 4.740069 7.436494
v -2.404697 6.148784 7.269938
v -2.823161 4.759145 7.264109
v -2.880222 6.029651 7.326818
v -3.544370 4.679262 7.027221
v -3.804608 6.156121 6.594990
v -4.584509 4.712349 5.867987
v -3.696281 5.924531 -5.634852
v -3.888475 4.516727 -5.865999
v -2.636868 6.037421 -5.838098
v -2.798646 4.620423 -6.176834
v -1.782056 6.145307 -5.943121
v -1.867890 4.697287 -6.359546
v -1.018923 6.170077 -6.052160
v -1.016492 4.725962 -6.480977
v -0.244314 6.140339 -6.087552
v -0.137702 4.677987 -6.457025
v 0.539602 6.094575 -6.029216
v 0.778834 4.619057 -6.295897
v 1.529180 6.073646 -5.752814
v 1.857651 4.586014 -5.919003
v -4.922438 5.007214 3.118293
v -4.263335 4.261390 -4.335658
v 2.731285 4.493629 -4.470009
v 3.742035 4.982308 4.110178
v 3.689208 4.222774 -3.592613
v 4.437422 4.072621 -2.581666
v 4.873642 4.015172 -1.534662
v 5.096887 4.089587 -0.659160
v 5.139482 4.131636 0.265271
v 4.871735 4.494019 1.330298
v 4.516885 5.099712 2.998340
v -5.757038 4.787691 1.809741
v -5.837237 4.504353 0.772931
v -5.708540 4.452390 -0.150238
v -5.629382 4.341549 -0.965467
v -5.593822 4.206361 -1.742916
v -5.451531 4.190888 -2.641675
v -5.008899 4.196495 -3.497129
v 3.002423 4.997080 4.912008
v 1.748334 4.960920 5.530344
v 0.277510 4.841183 5.812139
v -0.951201 4.868025 6.021970
v -2.033414 4.847003 5.610110
v -2.933592 4.834195 5.358993
v -3.901129 4.844624 4.506299
v -3.243126 4.351705 -4.836965
v -2.393588 4.493384 -5.223732
v -1.607414 4.593854 -5.449893
v -0.846739 4.637795 -5.554141
v -0.054827 4.587530 -5.625737
v 0.772695 4.542143 -5.478140
v 1.723411 4.531847 -5.134398
vn -0.8230 0.3925 -0.4108
vn -0.4226 0.8782 -0.2241
vn -0.4164 0.7431 -0.5238
vn -0.6003 0.3052 -0.7392
vn 0.3236 0.4228 -0.8465
vn 0.2058 0.8583 -0.4701
vn 0.3613 0.7907 -0.4942
vn 0.5026 0.3573 -0.7872
vn 0.8047 0.2872 0.5195
vn 0.4113 0.8547 0.3167
vn 0.1363 0.8415 0.5228
vn 0.3461 0.3591 0.8667
vn -0.6854 0.3701 0.6271
vn -0.3902 0.8641 0.3178
vn -0.4768 0.8326 0.2820
vn -0.7758 0.4254 0.4659
vn -0.0762 0.9970 0.0159
vn -0.3950 0.9122 0.1088
vn -0.1867 0.8050 -0.5632
vn -0.0734 0.9950 -0.0674
vn -0.3699 0.9246 -0.0913
vn -0.0718 0.9973 -0.0143
vn -0.3032 0.9495 -0.0808
vn -0.0869 0.9954 -0.0408
vn -0.2898 0.9527 -0.0911
vn -0.0881 0.9959 -0.0212
vn -0.3157 0.9432 -0.1038
vn -0.0664 0.9977 -0.0140
vn -0.3474 0.9350 -0.0713
vn -0.0342 0.9976 -0.0599
vn 0.4668 0.7863 -0.4048
vn 0.7037 0.3614 -0.6117
vn 0.4931 0.8153 -0.3035
vn 0.8020 0.3713 -0.4680
vn 0.4694 0.8505 -0.2370
vn 0.8694 0.3843 -0.3105
vn 0.4179 0.8926 -0.1693
vn 0.8733 0.4361 -0.2173
vn 0.3911 0.9153 -0.0968
vn 0.8759 0.4749 -0.0855
vn 0.4002 0.9164 -0.0086
vn 0.8688 0.4859 0.0951
vn -0.8165 0.5191 0.2527
vn -0.8540 0.5187 -0.0389
vn -0.8541 0.4854 -0.1868
vn -0.8586 0.4878 -0.1575
vn -0.8408 0.5280 -0.1195
vn -0.8540 0.4814 -0.1974
vn 0.0565 0.9981 -0.0257
vn -0.0124 0.9971 0.0751
vn -0.0236 0.9994 0.0242
vn -0.0774 0.9947 0.0684
vn -0.0637 0.9956 0.0684
vn -0.0469 0.9956 0.0806
vn -0.0984 0.9929 0.0669
vn -0.0352 0.9974 0.0629
vn -0.0845 0.9959 0.0317
vn -0.0062 0.9997 0.0239
vn -0.0551 0.9982 -0.0240
vn 0.0024 1.0000 0.0067
vn 0.0755 0.9958 -0.0519
vn 0.0129 0.9999 0.0041
vn -0.0523 0.9975 0.0482
vn -0.1143 0.9916 0.0599
vn -0.1343 0.9897 0.0495
vn -0.1180 0.9929 0.0168
vn 0.0845 0.9929 -0.0842
vn 0.0250 0.9987 -0.0441
vn -0.0438 0.9989 -0.0148
vn -0.1092 0.9940 0.0074
vn -0.1378 0.9903 0.0153
vn -0.1362 0.9907 0.0024
vn 0.0965 0.9895 -0.1071
vn 0.0323 0.9963 -0.0801
vn -0.0284 0.9973 -0.0684
vn -0.0871 0.9951 -0.0475
vn -0.1181 0.9925 -0.0305
vn -0.1338 0.9907 -0.0266
vn 0.1377 0.9838 -0.1151
vn 0.0389 0.9960 -0.0798
vn -0.0087 0.9968 -0.0790
vn -0.0589 0.9957 -0.0715
vn -0.0880 0.9944 -0.0587
vn -0.1096 0.9932 -0.0388
vn 0.1444 0.9824 -0.1183
vn 0.0577 0.9909 -0.1212
vn 0.0159 0.9942 -0.1064
vn -0.0255 0.9958 -0.0878
vn -0.0597 0.9955 -0.0742
vn -0.0701 0.9957 -0.0612
vn 0.1193 0.8768 -0.4658
vn 0.0366 0.8900 -0.4544
vn -0.0306 0.9064 -0.4213
vn -0.0763 0.9028 -0.4233
vn -0.1031 0.8537 -0.5105
vn -0.0256 0.9563 0.2913
vn -0.0562 0.9569 0.2849
vn 0.0355 0.9606 0.2756
vn 0.0967 0.9535 0.2853
vn 0.0525 0.9220 0.3835
vn -0.2424 0.8480 0.4714
vn 0.1337 0.5862 0.7991
vn 0.1461 0.5928 0.7920
vn 0.2002 0.5397 0.8177
vn 0.1312 0.5007 0.8556
vn -0.0153 0.4711 0.8819
vn -0.3181 0.3096 0.8961
vn -0.3063 0.3224 -0.8957
vn -0.1777 0.4150 -0.8923
vn -0.1316 0.4901 -0.8617
vn -0.0639 0.5119 -0.8566
vn 0.0565 0.4974 -0.8657
vn 0.1888 0.4681 -0.8633
vn -0.0097 -0.9997 -0.0215
vn 0.1588 -0.5828 -0.7969
vn 0.3044 -0.5893 -0.7483
vn 0.0030 -0.9999 -0.0157
vn -0.0301 -0.9992 -0.0276
vn 0.0201 -0.5592 -0.8288
vn -0.0119 -0.9996 -0.0261
vn -0.0640 -0.5270 -0.8474
vn 0.0224 -0.9989 -0.0417
vn -0.0898 -0.5381 -0.8381
vn 0.0310 -0.9978 -0.0593
vn -0.1167 -0.5425 -0.8319
vn 0.0092 -0.9980 -0.0621
vn -0.2545 -0.5562 -0.7911
vn -0.0313 -0.9974 -0.0646
vn -0.4937 -0.5690 -0.6577
vn 0.0319 -0.9994 -0.0109
vn -0.3729 -0.6851 0.6258
vn -0.6361 -0.6542 0.4091
vn -0.0108 -0.9997 -0.0229
vn 0.0180 -0.9998 0.0002
vn -0.0597 -0.6969 0.7147
vn 0.0238 -0.9996 0.0133
vn 0.0715 -0.6616 0.7464
vn 0.0782 -0.9904 0.1138
vn 0.2398 -0.6501 0.7210
vn 0.1154 -0.9721 0.2043
vn 0.2891 -0.5176 0.8053
vn 0.0658 -0.9785 0.1955
vn 0.2942 -0.4413 0.8478
vn -0.0351 -0.9941 0.1028
vn 0.3591 -0.6461 0.6735
vn -0.0826 -0.9966 -0.0030
vn -0.7838 -0.5822 -0.2160
vn -0.6890 -0.5794 -0.4355
vn -0.0641 -0.9973 -0.0353
vn -0.0838 -0.9947 0.0592
vn -0.8092 -0.5851 -0.0531
vn -0.0735 -0.9933 0.0888
vn -0.7531 -0.6579 0.0066
vn -0.0695 -0.9950 0.0720
vn -0.7864 -0.6144 -0.0633
vn -0.0729 -0.9919 0.1044
vn -0.8174 -0.5670 0.1016
vn -0.0450 -0.9917 0.1208
vn -0.7881 -0.4947 0.3662
vn -0.0240 -0.9992 0.0328
vn -0.7137 -0.5805 0.3920
vn -0.1038 -0.9895 0.1005
vn 0.6481 -0.7151 0.2620
vn 0.5431 -0.7522 0.3731
vn -0.1638 -0.9827 0.0866
vn 0.0018 -0.9959 0.0901
vn 0.8056 -0.5903 0.0512
vn 0.0254 -0.9975 0.0658
vn 0.7425 -0.6640 -0.0882
vn -0.0009 -0.9990 0.0452
vn 0.7405 -0.6322 -0.2279
vn -0.0405 -0.9992 0.0048
vn 0.6021 -0.6795 -0.4192
vn -0.0734 -0.9967 -0.0335
vn 0.4702 -0.6294 -0.6187
vn -0.0453 -0.9983 -0.0355
vn 0.3817 -0.5546 -0.7394
vt 0.625000 1.000000
vt 0.875000 0.750000
vt 0.625000 0.000000
vt 0.875000 0.500000
vt 0.625000 0.250000
vt 0.625000 0.750000
vt 0.625000 0.500000
vt 0.875000 0.718750
vt 0.625000 0.031250
vt 0.875000 0.687500
vt 0.625000 0.062500
vt 0.875000 0.656250
vt 0.625000 0.093750
vt 0.875000 0.625000
vt 0.625000 0.125000
vt 0.875000 0.593750
vt 0.625000 0.156250
vt 0.875000 0.562500
vt 0.625000 0.187500
vt 0.875000 0.531250
vt 0.625000 0.218750
vt 0.625000 0.531250
vt 0.625000 0.562500
vt 0.625000 0.593750
vt 0.625000 0.625000
vt 0.625000 0.656250
vt 0.625000 0.687500
vt 0.625000 0.718750
vt 0.843750 0.500000
vt 0.625000 0.281250
vt 0.812500 0.500000
vt 0.625000 0.312500
vt 0.781250 0.500000
vt 0.625000 0.343750
vt 0.750000 0.500000
vt 0.625000 0.375000
vt 0.718750 0.500000
vt 0.625000 0.406250
vt 0.687500 0.500000
vt 0.625000 0.437500
vt 0.656250 0.500000
vt 0.625000 0.468750
vt 0.656250 0.750000
vt 0.625000 0.781250
vt 0.687500 0.750000
vt 0.625000 0.812500
vt 0.718750 0.750000
vt 0.625000 0.843750
vt 0.750000 0.750000
vt 0.625000 0.875000
vt 0.781250 0.750000
vt 0.625000 0.906250
vt 0.812500 0.750000
vt 0.625000 0.937500
vt 0.843750 0.750000
vt 0.625000 0.968750
vt 0.843750 0.531250
vt 0.812500 0.531250
vt 0.781250 0.531250
vt 0.750000 0.531250
vt 0.718750 0.531250
vt 0.687500 0.531250
vt 0.656250 0.531250
vt 0.843750 0.562500
vt 0.812500 0.562500
vt 0.781250 0.562500
vt 0.750000 0.562500
vt 0.718750 0.562500
vt 0.687500 0.562500
vt 0.656250 0.562500
vt 0.843750 0.593750
vt 0.812500 0.593750
vt 0.781250 0.593750
vt 0.750000 0.593750
vt 0.718750 0.593750
vt 0.687500 0.593750
vt 0.656250 0.593750
vt 0.843750 0.625000
vt 0.812500 0.625000
vt 0.781250 0.625000
vt 0.750000 0.625000
vt 0.718750 0.625000
vt 0.687500 0.625000
vt 0.656250 0.625000
vt 0.843750 0.656250
vt 0.812500 0.656250
vt 0.781250 0.656250
vt 0.750000 0.656250
vt 0.718750 0.656250
vt 0.687500 0.656250
vt 0.656250 0.656250
vt 0.843750 0.687500
vt 0.812500 0.687500
vt 0.781250 0.687500
vt 0.750000 0.687500
vt 0.718750 0.687500
vt 0.687500 0.687500
vt 0.656250 0.687500
vt 0.843750 0.718750
vt 0.812500 0.718750
vt 0.781250 0.718750
vt 0.750000 0.718750
vt 0.718750 0.718750
vt 0.687500 0.718750
vt 0.656250 0.718750
vt 0.562500 0.000000
vt 0.562500 1.000000
vt 0.593750 0.000000
vt 0.593750 1.000000
vt 0.593750 0.250000
vt 0.562500 0.250000
vt 0.593750 0.500000
vt 0.562500 0.500000
vt 0.593750 0.750000
vt 0.562500 0.750000
vt 0.593750 0.531250
vt 0.562500 0.531250
vt 0.593750 0.562500
vt 0.562500 0.562500
vt 0.593750 0.593750
vt 0.562500 0.593750
vt 0.593750 0.625000
vt 0.562500 0.625000
vt 0.593750 0.656250
vt 0.562500 0.656250
vt 0.593750 0.687500
vt 0.562500 0.687500
vt 0.593750 0.718750
vt 0.562500 0.718750
vt 0.593750 0.031250
vt 0.562500 0.031250
vt 0.593750 0.062500
vt 0.562500 0.062500
vt 0.593750 0.093750
vt 0.562500 0.093750
vt 0.593750 0.125000
vt 0.562500 0.125000
vt 0.593750 0.156250
vt 0.562500 0.156250
vt 0.593750 0.187500
vt 0.562500 0.187500
vt 0.593750 0.218750
vt 0.562500 0.218750
vt 0.593750 0.781250
vt 0.562500 0.781250
vt 0.593750 0.812500
vt 0.562500 0.812500
vt 0.593750 0.843750
vt 0.562500 0.843750
vt 0.593750 0.875000
vt 0.562500 0.875000
vt 0.593750 0.906250
vt 0.562500 0.906250
vt 0.593750 0.937500
vt 0.562500 0.937500
vt 0.593750 0.968750
vt 0.562500 0.968750
vt 0.593750 0.281250
vt 0.562500 0.281250
vt 0.593750 0.312500
vt 0.562500 0.312500
vt 0.593750 0.343750
vt 0.562500 0.343750
vt 0.593750 0.375000
vt 0.562500 0.375000
vt 0.593750 0.406250
vt 0.562500 0.406250
vt 0.593750 0.437500
vt 0.562500 0.437500
vt 0.593750 0.468750
vt 0.562500 0.468750
vt 0.542711 0.998467
vt 0.542590 -0.001126
vt 0.542775 0.250499
vt 0.543101 0.499378
vt 0.544790 0.750395
vt 0.542199 0.531066
vt 0.541542 0.562836
vt 0.542199 0.594265
vt 0.542081 0.625183
vt 0.542913 0.655637
vt 0.543446 0.687728
vt 0.544606 0.720395
vt 0.542616 0.030542
vt 0.543713 0.063969
vt 0.543491 0.094316
vt 0.543143 0.124765
vt 0.543267 0.154977
vt 0.542910 0.186366
vt 0.542961 0.218049
vt 0.544368 0.781574
vt 0.543990 0.812877
vt 0.544178 0.844423
vt 0.544707 0.876108
vt 0.544682 0.906510
vt 0.544490 0.936227
vt 0.543796 0.967306
vt 0.543126 0.281890
vt 0.542960 0.313269
vt 0.542838 0.344275
vt 0.542840 0.374781
vt 0.542830 0.404824
vt 0.542994 0.436324
vt 0.542974 0.467608
s 1
f 116/142/1 11/21/2 2/5/3 84/110/4
f 144/170/5 25/42/6 4/7/7 86/112/8
f 102/128/9 18/28/10 3/6/11 88/114/12
f 130/156/13 32/56/14 1/1/15 83/109/16
f 75/99/17 5/8/18 1/2/15 32/55/14
f 19/29/19 2/4/3 11/20/2 33/57/20
f 33/57/20 11/20/2 10/18/21 40/64/22
f 40/64/22 10/18/21 9/16/23 47/71/24
f 47/71/24 9/16/23 8/14/25 54/78/26
f 54/78/26 8/14/25 7/12/27 61/85/28
f 61/85/28 7/12/27 6/10/29 68/92/30
f 68/92/30 6/10/29 5/8/18 75/99/17
f 86/112/8 4/7/7 12/22/31 90/116/32
f 90/116/32 12/22/31 13/23/33 92/118/34
f 92/118/34 13/23/33 14/24/35 94/120/36
f 94/120/36 14/24/35 15/25/37 96/122/38
f 96/122/38 15/25/37 16/26/39 98/124/40
f 98/124/40 16/26/39 17/27/41 100/126/42
f 100/126/42 17/27/41 18/28/10 102/128/9
f 83/108/16 1/3/15 5/9/18 104/130/43
f 104/130/43 5/9/18 6/11/29 106/132/44
f 106/132/44 6/11/29 7/13/27 108/134/45
f 108/134/45 7/13/27 8/15/25 110/136/46
f 110/136/46 8/15/25 9/17/23 112/138/47
f 112/138/47 9/17/23 10/19/21 114/140/48
f 114/140/48 10/19/21 11/21/2 116/142/1
f 17/27/41 74/98/49 81/105/50 18/28/10
f 74/98/49 73/97/51 80/104/52 81/105/50
f 73/97/51 72/96/53 79/103/54 80/104/52
f 72/96/53 71/95/55 78/102/56 79/103/54
f 71/95/55 70/94/57 77/101/58 78/102/56
f 70/94/57 69/93/59 76/100/60 77/101/58
f 69/93/59 68/92/30 75/99/17 76/100/60
f 16/26/39 67/91/61 74/98/49 17/27/41
f 67/91/61 66/90/62 73/97/51 74/98/49
f 66/90/62 65/89/63 72/96/53 73/97/51
f 65/89/63 64/88/64 71/95/55 72/96/53
f 64/88/64 63/87/65 70/94/57 71/95/55
f 63/87/65 62/86/66 69/93/59 70/94/57
f 62/86/66 61/85/28 68/92/30 69/93/59
f 15/25/37 60/84/67 67/91/61 16/26/39
f 60/84/67 59/83/68 66/90/62 67/91/61
f 59/83/68 58/82/69 65/89/63 66/90/62
f 58/82/69 57/81/70 64/88/64 65/89/63
f 57/81/70 56/80/71 63/87/65 64/88/64
f 56/80/71 55/79/72 62/86/66 63/87/65
f 55/79/72 54/78/26 61/85/28 62/86/66
f 14/24/35 53/77/73 60/84/67 15/25/37
f 53/77/73 52/76/74 59/83/68 60/84/67
f 52/76/74 51/75/75 58/82/69 59/83/68
f 51/75/75 50/74/76 57/81/70 58/82/69
f 50/74/76 49/73/77 56/80/71 57/81/70
f 49/73/77 48/72/78 55/79/72 56/80/71
f 48/72/78 47/71/24 54/78/26 55/79/72
f 13/23/33 46/70/79 53/77/73 14/24/35
f 46/70/79 45/69/80 52/76/74 53/77/73
f 45/69/80 44/68/81 51/75/75 52/76/74
f 44/68/81 43/67/82 50/74/76 51/75/75
f 43/67/82 42/66/83 49/73/77 50/74/76
f 42/66/83 41/65/84 48/72/78 49/73/77
f 41/65/84 40/64/22 47/71/24 48/72/78
f 12/22/31 39/63/85 46/70/79 13/23/33
f 39/63/85 38/62/86 45/69/80 46/70/79
f 38/62/86 37/61/87 44/68/81 45/69/80
f 37/61/87 36/60/88 43/67/82 44/68/81
f 36/60/88 35/59/89 42/66/83 43/67/82
f 35/59/89 34/58/90 41/65/84 42/66/83
f 34/58/90 33/57/20 40/64/22 41/65/84
f 4/7/7 25/41/6 39/63/85 12/22/31
f 25/41/6 24/39/91 38/62/86 39/63/85
f 24/39/91 23/37/92 37/61/87 38/62/86
f 23/37/92 22/35/93 36/60/88 37/61/87
f 22/35/93 21/33/94 35/59/89 36/60/88
f 21/33/94 20/31/95 34/58/90 35/59/89
f 20/31/95 19/29/19 33/57/20 34/58/90
f 18/28/10 81/105/50 26/43/96 3/6/11
f 81/105/50 80/104/52 27/45/97 26/43/96
f 80/104/52 79/103/54 28/47/98 27/45/97
f 79/103/54 78/102/56 29/49/99 28/47/98
f 78/102/56 77/101/58 30/51/100 29/49/99
f 77/101/58 76/100/60 31/53/101 30/51/100
f 76/100/60 75/99/17 32/55/14 31/53/101
f 88/114/12 3/6/11 26/44/96 118/144/102
f 118/144/102 26/44/96 27/46/97 120/146/103
f 120/146/103 27/46/97 28/48/98 122/148/104
f 122/148/104 28/48/98 29/50/99 124/150/105
f 124/150/105 29/50/99 30/52/100 126/152/106
f 126/152/106 30/52/100 31/54/101 128/154/107
f 128/154/107 31/54/101 32/56/14 130/156/13
f 84/110/4 2/5/3 19/30/19 132/158/108
f 132/158/108 19/30/19 20/32/95 134/160/109
f 134/160/109 20/32/95 21/34/94 136/162/110
f 136/162/110 21/34/94 22/36/93 138/164/111
f 138/164/111 22/36/93 23/38/92 140/166/112
f 140/166/112 23/38/92 24/40/91 142/168/113
f 142/168/113 24/40/91 25/42/6 144/170/5
f 176/203/114 143/169/115 145/171/116 177/204/117
f 143/169/115 142/168/113 144/170/5 145/171/116
f 175/202/118 141/167/119 143/169/115 176/203/114
f 141/167/119 140/166/112 142/168/113 143/169/115
f 174/201/120 139/165/121 141/167/119 175/202/118
f 139/165/121 138/164/111 140/166/112 141/167/119
f 173/200/122 137/163/123 139/165/121 174/201/120
f 137/163/123 136/162/110 138/164/111 139/165/121
f 172/199/124 135/161/125 137/163/123 173/200/122
f 135/161/125 134/160/109 136/162/110 137/163/123
f 171/198/126 133/159/127 135/161/125 172/199/124
f 133/159/127 132/158/108 134/160/109 135/161/125
f 147/174/128 85/111/129 133/159/127 171/198/126
f 85/111/129 84/110/4 132/158/108 133/159/127
f 169/196/130 129/155/131 131/157/132 170/197/133
f 129/155/131 128/154/107 130/156/13 131/157/132
f 168/195/134 127/153/135 129/155/131 169/196/130
f 127/153/135 126/152/106 128/154/107 129/155/131
f 167/194/136 125/151/137 127/153/135 168/195/134
f 125/151/137 124/150/105 126/152/106 127/153/135
f 166/193/138 123/149/139 125/151/137 167/194/136
f 123/149/139 122/148/104 124/150/105 125/151/137
f 165/192/140 121/147/141 123/149/139 166/193/138
f 121/147/141 120/146/103 122/148/104 123/149/139
f 164/191/142 119/145/143 121/147/141 165/192/140
f 119/145/143 118/144/102 120/146/103 121/147/141
f 149/176/144 89/115/145 119/145/143 164/191/142
f 89/115/145 88/114/12 118/144/102 119/145/143
f 162/189/146 115/141/147 117/143/148 163/190/149
f 115/141/147 114/140/48 116/142/1 117/143/148
f 161/188/150 113/139/151 115/141/147 162/189/146
f 113/139/151 112/138/47 114/140/48 115/141/147
f 160/187/152 111/137/153 113/139/151 161/188/150
f 111/137/153 110/136/46 112/138/47 113/139/151
f 159/186/154 109/135/155 111/137/153 160/187/152
f 109/135/155 108/134/45 110/136/46 111/137/153
f 158/185/156 107/133/157 109/135/155 159/186/154
f 107/133/157 106/132/44 108/134/45 109/135/155
f 157/184/158 105/131/159 107/133/157 158/185/156
f 105/131/159 104/130/43 106/132/44 107/133/157
f 146/173/160 82/106/161 105/131/159 157/184/158
f 82/106/161 83/108/16 104/130/43 105/131/159
f 155/182/162 101/127/163 103/129/164 156/183/165
f 101/127/163 100/126/42 102/128/9 103/129/164
f 154/181/166 99/125/167 101/127/163 155/182/162
f 99/125/167 98/124/40 100/126/42 101/127/163
f 153/180/168 97/123/169 99/125/167 154/181/166
f 97/123/169 96/122/38 98/124/40 99/125/167
f 152/179/170 95/121/171 97/123/169 153/180/168
f 95/121/171 94/120/36 96/122/38 97/123/169
f 151/178/172 93/119/173 95/121/171 152/179/170
f 93/119/173 92/118/34 94/120/36 95/121/171
f 150/177/174 91/117/175 93/119/173 151/178/172
f 91/117/175 90/116/32 92/118/34 93/119/173
f 148/175/176 87/113/177 91/117/175 150/177/174
f 87/113/177 86/112/8 90/116/32 91/117/175
f 170/197/133 131/157/132 82/107/161 146/172/160
f 131/157/132 130/156/13 83/109/16 82/107/161
f 156/183/165 103/129/164 89/115/145 149/176/144
f 103/129/164 102/128/9 88/114/12 89/115/145
f 177/204/117 145/171/116 87/113/177 148/175/176
f 145/171/116 144/170/5 86/112/8 87/113/177
f 163/190/149 117/143/148 85/111/129 147/174/128
f 117/143/148 116/142/1 84/110/4 85/111/129
f 163/190/149 147/174/128 171/198/126 172/199/124 173/200/122 174/201/120 175/202/118 176/203/114 177/204/117 148/175/176 150/177/174 151/178/172 152/179/170 153/180/168 154/181/166 155/182/162 156/183/165 149/176/144 164/191/142 165/192/140 166/193/138 167/194/136 168/195/134 169/196/130 170/197/133 146/173/160 157/184/158 158/185/156 159/186/154 160/187/152 161/188/150 162/189/146
