# Blender 3.2.2
# www.blender.org
mtllib sword2_Cylinder_008.mtl
o Cylinder.008
v -2.515741 -0.114914 -1.793855
v -2.523120 -0.144607 -1.829000
v -2.483734 -0.147712 -1.829000
v -2.483734 -0.117437 -1.793855
v -2.420949 -0.107441 -1.793855
v -2.406474 -0.135411 -1.829000
v -2.371570 -0.120479 -1.829000
v -2.392585 -0.095307 -1.793855
v -2.340977 -0.100383 -1.829000
v -2.367723 -0.078976 -1.793855
v -2.315869 -0.075897 -1.829000
v -2.347320 -0.059077 -1.793855
v -2.297213 -0.047960 -1.829000
v -2.332159 -0.036375 -1.793855
v -2.285724 -0.017647 -1.829000
v -2.322822 -0.011741 -1.793855
v -2.281845 0.013877 -1.829000
v -2.319670 0.013877 -1.793855
v -2.285724 0.045401 -1.829000
v -2.322822 0.039495 -1.793855
v -2.297213 0.075714 -1.829000
v -2.332159 0.064129 -1.793855
v -2.315869 0.103651 -1.829000
v -2.347320 0.086831 -1.793855
v -2.340977 0.128138 -1.829000
v -2.367723 0.106730 -1.793855
v -2.371570 0.148233 -1.829000
v -2.392585 0.123061 -1.793855
v -2.406474 0.163166 -1.829000
v -2.420949 0.135196 -1.793855
v -2.444347 0.172361 -1.829000
v -2.451726 0.142668 -1.793855
v -2.483734 0.175466 -1.829000
v -2.483734 0.145191 -1.793855
v -2.523120 0.172361 -1.829000
v -2.515741 0.142668 -1.793855
v -2.560993 0.163166 -1.829000
v -2.546518 0.135196 -1.793855
v -2.595897 0.148233 -1.829000
v -2.574883 0.123061 -1.793855
v -2.626491 0.128138 -1.829000
v -2.599744 0.106730 -1.793855
v -2.651598 0.103651 -1.829000
v -2.620148 0.086831 -1.793855
v -2.670254 0.075714 -1.829000
v -2.635309 0.064129 -1.793855
v -2.681743 0.045401 -1.829000
v -2.644645 0.039495 -1.793855
v -2.685622 0.013877 -1.829000
v -2.647797 0.013877 -1.793855
v -2.681743 -0.017647 -1.829000
v -2.644645 -0.011741 -1.793855
v -2.670254 -0.047960 -1.829000
v -2.635309 -0.036375 -1.793855
v -2.651598 -0.075897 -1.829000
v -2.620148 -0.059077 -1.793855
v -2.626491 -0.100383 -1.829000
v -2.599744 -0.078976 -1.793855
v -2.595897 -0.120479 -1.829000
v -2.574883 -0.095307 -1.793855
v -2.560993 -0.135411 -1.829000
v -2.546518 -0.107441 -1.793855
v -2.439431 -0.164388 -2.060770
v -2.483734 -0.167880 -2.060770
v -2.528036 -0.164388 -2.060770
v -2.570636 -0.154045 -2.060770
v -2.609897 -0.137249 -2.060770
v -2.644309 -0.114645 -2.060770
v -2.672550 -0.087102 -2.060770
v -2.693535 -0.055679 -2.060770
v -2.706458 -0.021582 -2.060770
v -2.710821 0.013877 -2.060770
v -2.706458 0.049336 -2.060770
v -2.693535 0.083433 -2.060770
v -2.672550 0.114856 -2.060770
v -2.644309 0.142399 -2.060770
v -2.609897 0.165003 -2.060770
v -2.570636 0.181799 -2.060770
v -2.528036 0.192142 -2.060770
v -2.483734 0.195635 -2.060770
v -2.439431 0.192142 -2.060770
v -2.396831 0.181799 -2.060770
v -2.357571 0.165003 -2.060770
v -2.323159 0.142399 -2.060770
v -2.294917 0.114856 -2.060770
v -2.273932 0.083433 -2.060770
v -2.261010 0.049336 -2.060770
v -2.256646 0.013877 -2.060770
v -2.261010 -0.021582 -2.060770
v -2.273932 -0.055678 -2.060770
v -2.294917 -0.087102 -2.060770
v -2.323159 -0.114645 -2.060770
v -2.357571 -0.137249 -2.060770
v -2.396831 -0.154045 -2.060770
v -2.444347 -0.144607 -1.829000
v -2.451726 -0.114914 -1.793855
v -2.570962 -0.154674 -1.889075
v -2.528202 -0.165056 -1.889075
v -2.610369 -0.137815 -1.889075
v -2.644910 -0.115126 -1.889075
v -2.673257 -0.087480 -1.889075
v -2.694321 -0.055939 -1.889075
v -2.707292 -0.021715 -1.889075
v -2.711672 0.013877 -1.889075
v -2.707292 0.049469 -1.889075
v -2.694321 0.083693 -1.889075
v -2.673257 0.115234 -1.889075
v -2.644910 0.142880 -1.889075
v -2.610369 0.165569 -1.889075
v -2.570962 0.182428 -1.889075
v -2.528202 0.192810 -1.889075
v -2.483734 0.196315 -1.889075
v -2.439265 0.192810 -1.889075
v -2.396506 0.182428 -1.889075
v -2.357098 0.165569 -1.889075
v -2.322557 0.142880 -1.889075
v -2.294210 0.115234 -1.889075
v -2.273146 0.083693 -1.889075
v -2.260175 0.049469 -1.889075
v -2.255796 0.013877 -1.889075
v -2.260175 -0.021715 -1.889075
v -2.273147 -0.055939 -1.889075
v -2.294210 -0.087480 -1.889075
v -2.322557 -0.115126 -1.889075
v -2.357098 -0.137815 -1.889075
v -2.396506 -0.154674 -1.889075
v -2.439265 -0.165056 -1.889075
v -2.483734 -0.168561 -1.889075
v -2.483734 -0.162513 -1.856690
v -2.526728 -0.159124 -1.856690
v -2.568070 -0.149086 -1.856690
v -2.606171 -0.132786 -1.856690
v -2.639567 -0.110850 -1.856690
v -2.666974 -0.084120 -1.856690
v -2.687340 -0.053625 -1.856690
v -2.699881 -0.020535 -1.856690
v -2.704115 0.013877 -1.856690
v -2.699881 0.048289 -1.856690
v -2.687340 0.081379 -1.856690
v -2.666974 0.111874 -1.856690
v -2.639567 0.138604 -1.856690
v -2.606171 0.160540 -1.856690
v -2.568070 0.176840 -1.856690
v -2.526728 0.186878 -1.856690
v -2.483734 0.190267 -1.856690
v -2.440739 0.186878 -1.856690
v -2.399397 0.176840 -1.856690
v -2.361296 0.160540 -1.856690
v -2.327900 0.138604 -1.856690
v -2.300493 0.111874 -1.856690
v -2.280128 0.081379 -1.856690
v -2.267587 0.048289 -1.856690
v -2.263352 0.013877 -1.856690
v -2.267587 -0.020535 -1.856690
v -2.280128 -0.053625 -1.856690
v -2.300493 -0.084120 -1.856690
v -2.327900 -0.110850 -1.856690
v -2.361296 -0.132786 -1.856690
v -2.399397 -0.149086 -1.856690
v -2.440739 -0.159124 -1.856690
vn -0.1187 -0.7460 0.6552
vn -0.1300 -0.8167 0.5623
vn -0.0000 -0.8288 0.5596
vn -0.0000 -0.7577 0.6527
vn 0.2357 -0.7108 0.6627
vn 0.2586 -0.7799 0.5700
vn 0.3834 -0.7169 0.5822
vn 0.3482 -0.6510 0.6745
vn 0.5010 -0.6259 0.5977
vn 0.4528 -0.5657 0.6892
vn 0.6056 -0.5056 0.6145
vn 0.5445 -0.4546 0.7049
vn 0.6898 -0.3569 0.6299
vn 0.6172 -0.3194 0.7190
vn 0.7450 -0.1852 0.6408
vn 0.6643 -0.1650 0.7290
vn 0.7643 -0.0000 0.6448
vn 0.6807 -0.0000 0.7326
vn 0.7450 0.1852 0.6408
vn 0.6643 0.1650 0.7290
vn 0.6898 0.3569 0.6299
vn 0.6172 0.3194 0.7190
vn 0.6056 0.5055 0.6145
vn 0.5445 0.4546 0.7049
vn 0.5010 0.6259 0.5977
vn 0.4528 0.5657 0.6892
vn 0.3834 0.7169 0.5822
vn 0.3482 0.6510 0.6745
vn 0.2586 0.7799 0.5700
vn 0.2357 0.7108 0.6627
vn 0.1300 0.8167 0.5623
vn 0.1187 0.7460 0.6552
vn -0.0000 0.8288 0.5596
vn -0.0000 0.7577 0.6527
vn -0.1300 0.8167 0.5623
vn -0.1187 0.7460 0.6552
vn -0.2586 0.7799 0.5700
vn -0.2357 0.7108 0.6627
vn -0.3834 0.7169 0.5822
vn -0.3482 0.6510 0.6745
vn -0.5010 0.6259 0.5977
vn -0.4528 0.5657 0.6892
vn -0.6056 0.5056 0.6145
vn -0.5445 0.4546 0.7049
vn -0.6898 0.3570 0.6299
vn -0.6172 0.3194 0.7190
vn -0.7451 0.1851 0.6407
vn -0.6643 0.1651 0.7290
vn -0.7643 -0.0000 0.6448
vn -0.6807 -0.0000 0.7326
vn -0.7451 -0.1852 0.6408
vn -0.6643 -0.1651 0.7290
vn -0.6898 -0.3570 0.6299
vn -0.6172 -0.3194 0.7190
vn -0.6056 -0.5056 0.6145
vn -0.5445 -0.4546 0.7049
vn -0.5010 -0.6259 0.5977
vn -0.4528 -0.5657 0.6892
vn -0.3834 -0.7169 0.5822
vn -0.3482 -0.6510 0.6745
vn -0.2586 -0.7799 0.5700
vn -0.2357 -0.7108 0.6627
vn -0.0000 -0.0000 -1.0000
vn 0.1300 -0.8167 0.5623
vn 0.1188 -0.7460 0.6552
vn -0.0000 -0.0000 1.0000
vn -0.3135 -0.9452 0.0915
vn -0.3147 -0.9492 -0.0041
vn -0.1573 -0.9876 -0.0040
vn -0.1566 -0.9836 0.0897
vn -0.4695 -0.8779 0.0945
vn -0.4715 -0.8818 -0.0042
vn -0.6219 -0.7769 0.0983
vn -0.6249 -0.7807 -0.0044
vn -0.7636 -0.6375 0.1027
vn -0.7676 -0.6409 -0.0046
vn -0.8830 -0.4570 0.1068
vn -0.8881 -0.4596 -0.0048
vn -0.9646 -0.2396 0.1099
vn -0.9705 -0.2411 -0.0049
vn -0.9938 -0.0000 0.1114
vn -1.0000 -0.0000 -0.0050
vn -0.9646 0.2397 0.1099
vn -0.9705 0.2411 -0.0049
vn -0.8830 0.4570 0.1068
vn -0.8881 0.4596 -0.0048
vn -0.7636 0.6375 0.1027
vn -0.7676 0.6409 -0.0046
vn -0.6219 0.7769 0.0983
vn -0.6249 0.7807 -0.0044
vn -0.4695 0.8779 0.0945
vn -0.4716 0.8818 -0.0042
vn -0.3135 0.9452 0.0915
vn -0.3147 0.9492 -0.0041
vn -0.1566 0.9836 0.0897
vn -0.1573 0.9875 -0.0040
vn -0.0000 0.9960 0.0892
vn -0.0000 1.0000 -0.0040
vn 0.1566 0.9836 0.0897
vn 0.1574 0.9875 -0.0040
vn 0.3135 0.9452 0.0915
vn 0.3147 0.9492 -0.0041
vn 0.4695 0.8779 0.0945
vn 0.4716 0.8818 -0.0042
vn 0.6219 0.7769 0.0983
vn 0.6249 0.7807 -0.0044
vn 0.7636 0.6375 0.1027
vn 0.7676 0.6409 -0.0046
vn 0.8830 0.4570 0.1068
vn 0.8881 0.4596 -0.0048
vn 0.9646 0.2396 0.1099
vn 0.9705 0.2411 -0.0049
vn 0.9938 -0.0000 0.1109
vn 1.0000 -0.0000 -0.0050
vn 0.9646 -0.2397 0.1099
vn 0.9705 -0.2410 -0.0049
vn 0.8830 -0.4570 0.1068
vn 0.8881 -0.4596 -0.0048
vn 0.7636 -0.6375 0.1027
vn 0.7676 -0.6409 -0.0046
vn 0.6219 -0.7769 0.0983
vn 0.6249 -0.7807 -0.0044
vn 0.4695 -0.8779 0.0945
vn 0.4716 -0.8818 -0.0042
vn 0.3135 -0.9452 0.0915
vn 0.3147 -0.9492 -0.0041
vn 0.1566 -0.9836 0.0897
vn 0.1572 -0.9876 -0.0040
vn -0.0000 -0.9960 0.0893
vn -0.0000 -1.0000 -0.0040
vn -0.0000 -0.9460 0.3243
vn -0.1486 -0.9335 0.3263
vn -0.2968 -0.8953 0.3322
vn -0.4432 -0.8287 0.3417
vn -0.5844 -0.7302 0.3540
vn -0.7139 -0.5960 0.3677
vn -0.8212 -0.4250 0.3807
vn -0.8936 -0.2221 0.3902
vn -0.9193 -0.0000 0.3937
vn -0.8935 0.2221 0.3902
vn -0.8212 0.4250 0.3807
vn -0.7139 0.5960 0.3677
vn -0.5844 0.7302 0.3540
vn -0.4432 0.8287 0.3417
vn -0.2968 0.8953 0.3322
vn -0.1486 0.9335 0.3263
vn -0.0000 0.9460 0.3243
vn 0.1486 0.9335 0.3263
vn 0.2968 0.8953 0.3322
vn 0.4432 0.8287 0.3417
vn 0.5844 0.7302 0.3540
vn 0.7139 0.5960 0.3677
vn 0.8212 0.4250 0.3807
vn 0.8935 0.2222 0.3902
vn 0.9192 -0.0000 0.3937
vn 0.8935 -0.2221 0.3902
vn 0.8212 -0.4250 0.3807
vn 0.7139 -0.5960 0.3677
vn 0.5844 -0.7302 0.3540
vn 0.4432 -0.8287 0.3417
vn 0.2968 -0.8953 0.3322
vn 0.1486 -0.9335 0.3263
vt 0.031250 0.500000
vt 0.703178 0.485388
vt 0.031250 0.565836
vt 0.000000 0.565836
vt 1.000000 0.565836
vt 0.000000 0.500000
vt 1.000000 0.500000
vt 0.750000 0.490000
vt 0.841844 0.471731
vt 0.937500 0.500000
vt 0.937500 0.565836
vt 0.906250 0.565836
vt 0.906250 0.500000
vt 0.883337 0.449553
vt 0.875000 0.565836
vt 0.875000 0.500000
vt 0.919706 0.419706
vt 0.843750 0.565836
vt 0.843750 0.500000
vt 0.949553 0.383337
vt 0.812500 0.565836
vt 0.812500 0.500000
vt 0.971731 0.341844
vt 0.781250 0.565836
vt 0.781250 0.500000
vt 0.985388 0.296822
vt 0.750000 0.565836
vt 0.750000 0.500000
vt 0.990000 0.250000
vt 0.718750 0.565836
vt 0.718750 0.500000
vt 0.985388 0.203178
vt 0.687500 0.565836
vt 0.687500 0.500000
vt 0.971731 0.158156
vt 0.656250 0.565836
vt 0.656250 0.500000
vt 0.949553 0.116663
vt 0.625000 0.565836
vt 0.625000 0.500000
vt 0.919706 0.080294
vt 0.593750 0.565836
vt 0.593750 0.500000
vt 0.883337 0.050447
vt 0.562500 0.565836
vt 0.562500 0.500000
vt 0.841844 0.028269
vt 0.531250 0.565836
vt 0.531250 0.500000
vt 0.796822 0.014612
vt 0.500000 0.565836
vt 0.500000 0.500000
vt 0.750000 0.010000
vt 0.468750 0.565836
vt 0.468750 0.500000
vt 0.703178 0.014612
vt 0.437500 0.565836
vt 0.437500 0.500000
vt 0.658156 0.028269
vt 0.406250 0.565836
vt 0.406250 0.500000
vt 0.616663 0.050447
vt 0.375000 0.565836
vt 0.375000 0.500000
vt 0.580294 0.080294
vt 0.343750 0.565836
vt 0.343750 0.500000
vt 0.550447 0.116663
vt 0.312500 0.565836
vt 0.312500 0.500000
vt 0.528269 0.158156
vt 0.281250 0.565836
vt 0.281250 0.500000
vt 0.514612 0.203178
vt 0.250000 0.565836
vt 0.250000 0.500000
vt 0.510000 0.250000
vt 0.218750 0.565836
vt 0.218750 0.500000
vt 0.514612 0.296822
vt 0.187500 0.565836
vt 0.187500 0.500000
vt 0.528269 0.341844
vt 0.156250 0.565836
vt 0.156250 0.500000
vt 0.550447 0.383337
vt 0.125000 0.565836
vt 0.125000 0.500000
vt 0.580294 0.419706
vt 0.093750 0.565836
vt 0.093750 0.500000
vt 0.616663 0.449553
vt 0.062500 0.565836
vt 0.062500 0.500000
vt 0.658156 0.471731
vt 0.296822 0.485388
vt 0.968750 1.000000
vt 0.250000 0.490000
vt 1.000000 1.000000
vt 0.000000 1.000000
vt 0.203178 0.485388
vt 0.031250 1.000000
vt 0.158156 0.471731
vt 0.062500 1.000000
vt 0.116663 0.449553
vt 0.093750 1.000000
vt 0.080294 0.419706
vt 0.125000 1.000000
vt 0.050447 0.383337
vt 0.156250 1.000000
vt 0.028269 0.341844
vt 0.187500 1.000000
vt 0.014612 0.296822
vt 0.218750 1.000000
vt 0.010000 0.250000
vt 0.250000 1.000000
vt 0.014612 0.203178
vt 0.281250 1.000000
vt 0.028269 0.158156
vt 0.312500 1.000000
vt 0.050447 0.116663
vt 0.343750 1.000000
vt 0.080294 0.080294
vt 0.375000 1.000000
vt 0.116663 0.050447
vt 0.406250 1.000000
vt 0.158156 0.028269
vt 0.437500 1.000000
vt 0.203178 0.014612
vt 0.468750 1.000000
vt 0.250000 0.010000
vt 0.500000 1.000000
vt 0.296822 0.014612
vt 0.531250 1.000000
vt 0.341844 0.028269
vt 0.562500 1.000000
vt 0.383337 0.050447
vt 0.593750 1.000000
vt 0.419706 0.080294
vt 0.625000 1.000000
vt 0.449553 0.116663
vt 0.656250 1.000000
vt 0.471731 0.158156
vt 0.687500 1.000000
vt 0.485388 0.203178
vt 0.718750 1.000000
vt 0.490000 0.250000
vt 0.750000 1.000000
vt 0.485388 0.296822
vt 0.781250 1.000000
vt 0.471731 0.341844
vt 0.812500 1.000000
vt 0.449553 0.383337
vt 0.843750 1.000000
vt 0.419706 0.419706
vt 0.875000 1.000000
vt 0.383337 0.449553
vt 0.906250 1.000000
vt 0.341844 0.471731
vt 0.937500 1.000000
vt 0.968750 0.565836
vt 0.796822 0.485388
vt 0.968750 0.500000
vt 0.062500 0.678371
vt 0.031250 0.678371
vt 0.093750 0.678371
vt 0.125000 0.678371
vt 0.156250 0.678371
vt 0.187500 0.678371
vt 0.218750 0.678371
vt 0.250000 0.678371
vt 0.281250 0.678371
vt 0.312500 0.678371
vt 0.343750 0.678371
vt 0.375000 0.678371
vt 0.406250 0.678371
vt 0.437500 0.678371
vt 0.468750 0.678371
vt 0.500000 0.678371
vt 0.531250 0.678371
vt 0.562500 0.678371
vt 0.593750 0.678371
vt 0.625000 0.678371
vt 0.656250 0.678371
vt 0.687500 0.678371
vt 0.718750 0.678371
vt 0.750000 0.678371
vt 0.781250 0.678371
vt 0.812500 0.678371
vt 0.843750 0.678371
vt 0.875000 0.678371
vt 0.906250 0.678371
vt 0.937500 0.678371
vt 0.968750 0.678371
vt 1.000000 0.678371
vt 0.000000 0.678371
vt 0.000530 0.611483
vt 0.999470 0.611483
vt 0.031250 0.611483
vt 0.062500 0.611483
vt 0.093750 0.611483
vt 0.125000 0.611483
vt 0.156250 0.611483
vt 0.187500 0.611483
vt 0.218750 0.611483
vt 0.250000 0.611483
vt 0.281250 0.611483
vt 0.312500 0.611483
vt 0.343750 0.611483
vt 0.375000 0.611483
vt 0.406250 0.611483
vt 0.437500 0.611483
vt 0.468750 0.611483
vt 0.500000 0.611483
vt 0.531250 0.611483
vt 0.562500 0.611483
vt 0.593750 0.611483
vt 0.625000 0.611483
vt 0.656250 0.611483
vt 0.687500 0.611483
vt 0.718750 0.611483
vt 0.750000 0.611483
vt 0.781250 0.611483
vt 0.812500 0.611483
vt 0.843750 0.611483
vt 0.875000 0.611483
vt 0.906250 0.611483
vt 0.937500 0.611483
vt 0.968750 0.611483
s 1
usemtl Default_OBJ.001
f 1/1/1 2/3/2 3/4/3 4/6/4
f 5/10/5 6/11/6 7/12/7 8/13/8
f 8/13/8 7/12/7 9/15/9 10/16/10
f 10/16/10 9/15/9 11/18/11 12/19/12
f 12/19/12 11/18/11 13/21/13 14/22/14
f 14/22/14 13/21/13 15/24/15 16/25/16
f 16/25/16 15/24/15 17/27/17 18/28/18
f 18/28/18 17/27/17 19/30/19 20/31/20
f 20/31/20 19/30/19 21/33/21 22/34/22
f 22/34/22 21/33/21 23/36/23 24/37/24
f 24/37/24 23/36/23 25/39/25 26/40/26
f 26/40/26 25/39/25 27/42/27 28/43/28
f 28/43/28 27/42/27 29/45/29 30/46/30
f 30/46/30 29/45/29 31/48/31 32/49/32
f 32/49/32 31/48/31 33/51/33 34/52/34
f 34/52/34 33/51/33 35/54/35 36/55/36
f 36/55/36 35/54/35 37/57/37 38/58/38
f 38/58/38 37/57/37 39/60/39 40/61/40
f 40/61/40 39/60/39 41/63/41 42/64/42
f 42/64/42 41/63/41 43/66/43 44/67/44
f 44/67/44 43/66/43 45/69/45 46/70/46
f 46/70/46 45/69/45 47/72/47 48/73/48
f 48/73/48 47/72/47 49/75/49 50/76/50
f 50/76/50 49/75/49 51/78/51 52/79/52
f 52/79/52 51/78/51 53/81/53 54/82/54
f 54/82/54 53/81/53 55/84/55 56/85/56
f 56/85/56 55/84/55 57/87/57 58/88/58
f 58/88/58 57/87/57 59/90/59 60/91/60
f 60/91/60 59/90/59 61/93/61 62/94/62
f 62/94/62 61/93/61 2/3/2 1/1/1
f 63/96/63 64/98/63 65/101/63 66/103/63 67/105/63 68/107/63 69/109/63 70/111/63 71/113/63 72/115/63 73/117/63 74/119/63 75/121/63 76/123/63 77/125/63 78/127/63 79/129/63 80/131/63 81/133/63 82/135/63 83/137/63 84/139/63 85/141/63 86/143/63 87/145/63 88/147/63 89/149/63 90/151/63 91/153/63 92/155/63 93/157/63 94/159/63
f 4/7/4 3/5/3 95/161/64 96/163/65
f 4/8/66 96/162/66 5/9/66 8/14/66 10/17/66 12/20/66 14/23/66 16/26/66 18/29/66 20/32/66 22/35/66 24/38/66 26/41/66 28/44/66 30/47/66 32/50/66 34/53/66 36/56/66 38/59/66 40/62/66 42/65/66 44/68/66 46/71/66 48/74/66 50/77/66 52/80/66 54/83/66 56/86/66 58/89/66 60/92/66 62/95/66 1/2/66
f 96/163/65 95/161/64 6/11/6 5/10/5
f 97/164/67 66/104/68 65/102/69 98/165/70
f 99/166/71 67/106/72 66/104/68 97/164/67
f 100/167/73 68/108/74 67/106/72 99/166/71
f 101/168/75 69/110/76 68/108/74 100/167/73
f 102/169/77 70/112/78 69/110/76 101/168/75
f 103/170/79 71/114/80 70/112/78 102/169/77
f 104/171/81 72/116/82 71/114/80 103/170/79
f 105/172/83 73/118/84 72/116/82 104/171/81
f 106/173/85 74/120/86 73/118/84 105/172/83
f 107/174/87 75/122/88 74/120/86 106/173/85
f 108/175/89 76/124/90 75/122/88 107/174/87
f 109/176/91 77/126/92 76/124/90 108/175/89
f 110/177/93 78/128/94 77/126/92 109/176/91
f 111/178/95 79/130/96 78/128/94 110/177/93
f 112/179/97 80/132/98 79/130/96 111/178/95
f 113/180/99 81/134/100 80/132/98 112/179/97
f 114/181/101 82/136/102 81/134/100 113/180/99
f 115/182/103 83/138/104 82/136/102 114/181/101
f 116/183/105 84/140/106 83/138/104 115/182/103
f 117/184/107 85/142/108 84/140/106 116/183/105
f 118/185/109 86/144/110 85/142/108 117/184/107
f 119/186/111 87/146/112 86/144/110 118/185/109
f 120/187/113 88/148/114 87/146/112 119/186/111
f 121/188/115 89/150/116 88/148/114 120/187/113
f 122/189/117 90/152/118 89/150/116 121/188/115
f 123/190/119 91/154/120 90/152/118 122/189/117
f 124/191/121 92/156/122 91/154/120 123/190/119
f 125/192/123 93/158/124 92/156/122 124/191/121
f 126/193/125 94/160/126 93/158/124 125/192/123
f 127/194/127 63/97/128 94/160/126 126/193/125
f 128/195/129 64/99/130 63/97/128 127/194/127
f 98/165/70 128/196/129 129/197/131 130/199/132
f 130/199/132 129/197/131 3/4/3 2/3/2
f 97/164/67 98/165/70 130/199/132 131/200/133
f 131/200/133 130/199/132 2/3/2 61/93/61
f 99/166/71 97/164/67 131/200/133 132/201/134
f 132/201/134 131/200/133 61/93/61 59/90/59
f 100/167/73 99/166/71 132/201/134 133/202/135
f 133/202/135 132/201/134 59/90/59 57/87/57
f 101/168/75 100/167/73 133/202/135 134/203/136
f 134/203/136 133/202/135 57/87/57 55/84/55
f 102/169/77 101/168/75 134/203/136 135/204/137
f 135/204/137 134/203/136 55/84/55 53/81/53
f 103/170/79 102/169/77 135/204/137 136/205/138
f 136/205/138 135/204/137 53/81/53 51/78/51
f 104/171/81 103/170/79 136/205/138 137/206/139
f 137/206/139 136/205/138 51/78/51 49/75/49
f 105/172/83 104/171/81 137/206/139 138/207/140
f 138/207/140 137/206/139 49/75/49 47/72/47
f 106/173/85 105/172/83 138/207/140 139/208/141
f 139/208/141 138/207/140 47/72/47 45/69/45
f 107/174/87 106/173/85 139/208/141 140/209/142
f 140/209/142 139/208/141 45/69/45 43/66/43
f 108/175/89 107/174/87 140/209/142 141/210/143
f 141/210/143 140/209/142 43/66/43 41/63/41
f 109/176/91 108/175/89 141/210/143 142/211/144
f 142/211/144 141/210/143 41/63/41 39/60/39
f 110/177/93 109/176/91 142/211/144 143/212/145
f 143/212/145 142/211/144 39/60/39 37/57/37
f 111/178/95 110/177/93 143/212/145 144/213/146
f 144/213/146 143/212/145 37/57/37 35/54/35
f 112/179/97 111/178/95 144/213/146 145/214/147
f 145/214/147 144/213/146 35/54/35 33/51/33
f 113/180/99 112/179/97 145/214/147 146/215/148
f 146/215/148 145/214/147 33/51/33 31/48/31
f 114/181/101 113/180/99 146/215/148 147/216/149
f 147/216/149 146/215/148 31/48/31 29/45/29
f 115/182/103 114/181/101 147/216/149 148/217/150
f 148/217/150 147/216/149 29/45/29 27/42/27
f 116/183/105 115/182/103 148/217/150 149/218/151
f 149/218/151 148/217/150 27/42/27 25/39/25
f 117/184/107 116/183/105 149/218/151 150/219/152
f 150/219/152 149/218/151 25/39/25 23/36/23
f 118/185/109 117/184/107 150/219/152 151/220/153
f 151/220/153 150/219/152 23/36/23 21/33/21
f 119/186/111 118/185/109 151/220/153 152/221/154
f 152/221/154 151/220/153 21/33/21 19/30/19
f 120/187/113 119/186/111 152/221/154 153/222/155
f 153/222/155 152/221/154 19/30/19 17/27/17
f 121/188/115 120/187/113 153/222/155 154/223/156
f 154/223/156 153/222/155 17/27/17 15/24/15
f 122/189/117 121/188/115 154/223/156 155/224/157
f 155/224/157 154/223/156 15/24/15 13/21/13
f 123/190/119 122/189/117 155/224/157 156/225/158
f 156/225/158 155/224/157 13/21/13 11/18/11
f 124/191/121 123/190/119 156/225/158 157/226/159
f 157/226/159 156/225/158 11/18/11 9/15/9
f 125/192/123 124/191/121 157/226/159 158/227/160
f 158/227/160 157/226/159 9/15/9 7/12/7
f 126/193/125 125/192/123 158/227/160 159/228/161
f 159/228/161 158/227/160 7/12/7 6/11/6
f 127/194/127 126/193/125 159/228/161 160/229/162
f 160/229/162 159/228/161 6/11/6 95/161/64
f 128/195/129 127/194/127 160/229/162 129/198/131
f 129/198/131 160/229/162 95/161/64 3/5/3
f 98/165/70 65/102/69 64/100/130 128/196/129
