# Blender 3.2.2
# www.blender.org
mtllib sword2_Cylinder_007.mtl
o Cylinder.007
v -2.510037 -0.244895 -2.024457
v -2.509140 -0.218565 -2.094849
v -2.440232 -0.214365 -2.094849
v -2.432828 -0.240190 -2.024457
v -2.373972 -0.201928 -2.094849
v -2.358586 -0.226254 -2.024457
v -2.312907 -0.181730 -2.094849
v -2.290164 -0.203623 -2.024457
v -2.259383 -0.154549 -2.094849
v -2.230192 -0.173167 -2.024457
v -2.215456 -0.121428 -2.094849
v -2.180974 -0.136056 -2.024457
v -2.182817 -0.083641 -2.094849
v -2.144402 -0.093717 -2.024457
v -2.162717 -0.042640 -2.094849
v -2.121881 -0.047776 -2.024457
v -2.155930 0.000000 -2.094849
v -2.114276 0.000000 -2.024457
v -2.162717 0.042640 -2.094849
v -2.121881 0.047777 -2.024457
v -2.182817 0.083642 -2.094849
v -2.144402 0.093718 -2.024457
v -2.215456 0.121429 -2.094849
v -2.180974 0.136057 -2.024457
v -2.259383 0.154549 -2.094849
v -2.230192 0.173168 -2.024457
v -2.312907 0.181731 -2.094849
v -2.290164 0.203624 -2.024457
v -2.373972 0.201928 -2.094849
v -2.358586 0.226254 -2.024457
v -2.440232 0.214366 -2.094849
v -2.432828 0.240190 -2.024457
v -2.509140 0.218565 -2.094849
v -2.510037 0.244896 -2.024457
v -2.578048 0.214366 -2.094849
v -2.587246 0.240190 -2.024457
v -2.644307 0.201928 -2.094849
v -2.661488 0.226254 -2.024457
v -2.705373 0.181731 -2.094849
v -2.729910 0.203624 -2.024457
v -2.758897 0.154549 -2.094849
v -2.789882 0.173168 -2.024457
v -2.802823 0.121429 -2.094849
v -2.839100 0.136057 -2.024457
v -2.835463 0.083642 -2.094849
v -2.875672 0.093718 -2.024457
v -2.855562 0.042640 -2.094849
v -2.898193 0.047777 -2.024457
v -2.862350 0.000000 -2.094849
v -2.905798 0.000000 -2.024457
v -2.855562 -0.042640 -2.094849
v -2.898193 -0.047776 -2.024457
v -2.835463 -0.083641 -2.094849
v -2.875672 -0.093717 -2.024457
v -2.802823 -0.121428 -2.094849
v -2.839100 -0.136056 -2.024457
v -2.758897 -0.154549 -2.094849
v -2.789882 -0.173167 -2.024457
v -2.705373 -0.181730 -2.094849
v -2.729910 -0.203623 -2.024457
v -2.644307 -0.201928 -2.094849
v -2.661488 -0.226254 -2.024457
v -2.578048 -0.214365 -2.094849
v -2.587246 -0.240190 -2.024457
vn -0.0004 -0.9366 -0.3504
vn 0.0004 -0.9366 -0.3503
vn 0.1147 -0.9287 -0.3528
vn 0.1139 -0.9288 -0.3527
vn 0.2318 -0.9027 -0.3626
vn 0.2310 -0.9029 -0.3625
vn 0.3538 -0.8546 -0.3801
vn 0.3531 -0.8550 -0.3800
vn 0.4814 -0.7772 -0.4052
vn 0.4808 -0.7777 -0.4051
vn 0.6115 -0.6598 -0.4367
vn 0.6111 -0.6603 -0.4366
vn 0.7335 -0.4906 -0.4705
vn 0.7332 -0.4911 -0.4704
vn 0.8255 -0.2652 -0.4982
vn 0.8254 -0.2655 -0.4982
vn 0.8606 -0.0000 -0.5093
vn 0.8255 0.2652 -0.4982
vn 0.8254 0.2655 -0.4982
vn 0.7335 0.4906 -0.4705
vn 0.7332 0.4911 -0.4704
vn 0.6115 0.6598 -0.4367
vn 0.6110 0.6603 -0.4366
vn 0.4814 0.7772 -0.4052
vn 0.4808 0.7777 -0.4051
vn 0.3538 0.8546 -0.3801
vn 0.3531 0.8550 -0.3800
vn 0.2318 0.9027 -0.3626
vn 0.2310 0.9029 -0.3625
vn 0.1147 0.9286 -0.3528
vn 0.1139 0.9288 -0.3527
vn 0.0004 0.9366 -0.3503
vn -0.0004 0.9366 -0.3504
vn -0.1138 0.9278 -0.3553
vn -0.1146 0.9277 -0.3553
vn -0.2305 0.9010 -0.3676
vn -0.2313 0.9007 -0.3677
vn -0.3518 0.8520 -0.3876
vn -0.3525 0.8517 -0.3878
vn -0.4783 0.7738 -0.4152
vn -0.4790 0.7733 -0.4154
vn -0.6068 0.6558 -0.4490
vn -0.6073 0.6553 -0.4492
vn -0.7267 0.4868 -0.4848
vn -0.7270 0.4863 -0.4849
vn -0.8167 0.2627 -0.5138
vn -0.8168 0.2624 -0.5138
vn -0.8510 -0.0000 -0.5252
vn -0.8167 -0.2627 -0.5138
vn -0.8168 -0.2624 -0.5138
vn -0.7267 -0.4868 -0.4848
vn -0.7270 -0.4863 -0.4849
vn -0.6068 -0.6558 -0.4490
vn -0.6073 -0.6553 -0.4492
vn -0.4783 -0.7738 -0.4152
vn -0.4790 -0.7733 -0.4154
vn -0.3518 -0.8521 -0.3876
vn -0.3525 -0.8517 -0.3878
vn -0.2305 -0.9010 -0.3676
vn -0.2313 -0.9007 -0.3677
vn -0.0000 -0.0000 -1.0000
vn -0.1139 -0.9278 -0.3553
vn -0.1146 -0.9277 -0.3553
vn -0.0000 -0.0000 1.0000
vt 1.000000 0.500000
vt 0.000000 0.500000
vt 0.750000 0.490000
vt 1.000000 1.000000
vt 0.250000 0.490000
vt 0.000000 1.000000
vt 0.968750 1.000000
vt 0.296822 0.485388
vt 0.968750 0.500000
vt 0.796822 0.485388
vt 0.937500 1.000000
vt 0.341844 0.471731
vt 0.937500 0.500000
vt 0.841844 0.471731
vt 0.906250 1.000000
vt 0.383337 0.449553
vt 0.906250 0.500000
vt 0.883337 0.449553
vt 0.875000 1.000000
vt 0.419706 0.419706
vt 0.875000 0.500000
vt 0.919706 0.419706
vt 0.843750 1.000000
vt 0.449553 0.383337
vt 0.843750 0.500000
vt 0.949553 0.383337
vt 0.812500 1.000000
vt 0.471731 0.341844
vt 0.812500 0.500000
vt 0.971731 0.341844
vt 0.781250 1.000000
vt 0.485388 0.296822
vt 0.781250 0.500000
vt 0.985388 0.296822
vt 0.750000 1.000000
vt 0.490000 0.250000
vt 0.750000 0.500000
vt 0.990000 0.250000
vt 0.718750 1.000000
vt 0.485388 0.203178
vt 0.718750 0.500000
vt 0.985388 0.203178
vt 0.687500 1.000000
vt 0.471731 0.158156
vt 0.687500 0.500000
vt 0.971731 0.158156
vt 0.656250 1.000000
vt 0.449553 0.116663
vt 0.656250 0.500000
vt 0.949553 0.116663
vt 0.625000 1.000000
vt 0.419706 0.080294
vt 0.625000 0.500000
vt 0.919706 0.080294
vt 0.593750 1.000000
vt 0.383337 0.050447
vt 0.593750 0.500000
vt 0.883337 0.050447
vt 0.562500 1.000000
vt 0.341844 0.028269
vt 0.562500 0.500000
vt 0.841844 0.028269
vt 0.531250 1.000000
vt 0.296822 0.014612
vt 0.531250 0.500000
vt 0.796822 0.014612
vt 0.500000 1.000000
vt 0.250000 0.010000
vt 0.500000 0.500000
vt 0.750000 0.010000
vt 0.468750 1.000000
vt 0.203178 0.014612
vt 0.468750 0.500000
vt 0.703178 0.014612
vt 0.437500 1.000000
vt 0.158156 0.028269
vt 0.437500 0.500000
vt 0.658156 0.028269
vt 0.406250 1.000000
vt 0.116663 0.050447
vt 0.406250 0.500000
vt 0.616663 0.050447
vt 0.375000 1.000000
vt 0.080294 0.080294
vt 0.375000 0.500000
vt 0.580294 0.080294
vt 0.343750 1.000000
vt 0.050447 0.116663
vt 0.343750 0.500000
vt 0.550447 0.116663
vt 0.312500 1.000000
vt 0.028269 0.158156
vt 0.312500 0.500000
vt 0.528269 0.158156
vt 0.281250 1.000000
vt 0.014612 0.203178
vt 0.281250 0.500000
vt 0.514612 0.203178
vt 0.250000 1.000000
vt 0.010000 0.250000
vt 0.250000 0.500000
vt 0.510000 0.250000
vt 0.218750 1.000000
vt 0.014612 0.296822
vt 0.218750 0.500000
vt 0.514612 0.296822
vt 0.187500 1.000000
vt 0.028269 0.341844
vt 0.187500 0.500000
vt 0.528269 0.341844
vt 0.156250 1.000000
vt 0.050447 0.383337
vt 0.156250 0.500000
vt 0.550447 0.383337
vt 0.125000 1.000000
vt 0.080294 0.419706
vt 0.125000 0.500000
vt 0.580294 0.419706
vt 0.093750 1.000000
vt 0.116663 0.449553
vt 0.093750 0.500000
vt 0.616663 0.449553
vt 0.158156 0.471731
vt 0.062500 1.000000
vt 0.062500 0.500000
vt 0.658156 0.471731
vt 0.203178 0.485388
vt 0.031250 1.000000
vt 0.031250 0.500000
vt 0.703178 0.485388
s 1
usemtl Default_OBJ.001
f 1/1/1 2/4/2 3/7/3 4/9/4
f 4/9/4 3/7/3 5/11/5 6/13/6
f 6/13/6 5/11/5 7/15/7 8/17/8
f 8/17/8 7/15/7 9/19/9 10/21/10
f 10/21/10 9/19/9 11/23/11 12/25/12
f 12/25/12 11/23/11 13/27/13 14/29/14
f 14/29/14 13/27/13 15/31/15 16/33/16
f 16/33/16 15/31/15 17/35/17 18/37/17
f 18/37/17 17/35/17 19/39/18 20/41/19
f 20/41/19 19/39/18 21/43/20 22/45/21
f 22/45/21 21/43/20 23/47/22 24/49/23
f 24/49/23 23/47/22 25/51/24 26/53/25
f 26/53/25 25/51/24 27/55/26 28/57/27
f 28/57/27 27/55/26 29/59/28 30/61/29
f 30/61/29 29/59/28 31/63/30 32/65/31
f 32/65/31 31/63/30 33/67/32 34/69/33
f 34/69/33 33/67/32 35/71/34 36/73/35
f 36/73/35 35/71/34 37/75/36 38/77/37
f 38/77/37 37/75/36 39/79/38 40/81/39
f 40/81/39 39/79/38 41/83/40 42/85/41
f 42/85/41 41/83/40 43/87/42 44/89/43
f 44/89/43 43/87/42 45/91/44 46/93/45
f 46/93/45 45/91/44 47/95/46 48/97/47
f 48/97/47 47/95/46 49/99/48 50/101/48
f 50/101/48 49/99/48 51/103/49 52/105/50
f 52/105/50 51/103/49 53/107/51 54/109/52
f 54/109/52 53/107/51 55/111/53 56/113/54
f 56/113/54 55/111/53 57/115/55 58/117/56
f 58/117/56 57/115/55 59/119/57 60/121/58
f 60/121/58 59/119/57 61/124/59 62/125/60
f 3/8/61 2/5/61 63/127/61 61/123/61 59/120/61 57/116/61 55/112/61 53/108/61 51/104/61 49/100/61 47/96/61 45/92/61 43/88/61 41/84/61 39/80/61 37/76/61 35/72/61 33/68/61 31/64/61 29/60/61 27/56/61 25/52/61 23/48/61 21/44/61 19/40/61 17/36/61 15/32/61 13/28/61 11/24/61 9/20/61 7/16/61 5/12/61
f 62/125/60 61/124/59 63/128/62 64/129/63
f 64/129/63 63/128/62 2/6/2 1/2/1
f 1/3/64 4/10/64 6/14/64 8/18/64 10/22/64 12/26/64 14/30/64 16/34/64 18/38/64 20/42/64 22/46/64 24/50/64 26/54/64 28/58/64 30/62/64 32/66/64 34/70/64 36/74/64 38/78/64 40/82/64 42/86/64 44/90/64 46/94/64 48/98/64 50/102/64 52/106/64 54/110/64 56/114/64 58/118/64 60/122/64 62/126/64 64/130/64
