# Blender 3.2.2
# www.blender.org
mtllib sword2_Vert_005.mtl
o Vert.005
v -2.755386 -0.018770 -4.707918
v -2.710442 -0.018770 -4.700988
v -2.702062 -0.018770 -4.736627
v -2.734056 -0.018770 -4.749497
v -2.680732 -0.018770 -4.798004
v -2.712727 -0.018770 -4.806914
v -2.633503 -0.018770 -4.823743
v -2.668544 -0.018770 -4.854432
v -2.596176 -0.018770 -4.816813
v -2.609126 -0.018770 -4.860372
v -2.576370 -0.018770 -4.830673
v -2.565706 -0.018770 -4.798004
v -2.755386 0.030217 -4.707918
v -2.734056 0.030217 -4.749497
v -2.702062 0.030217 -4.736627
v -2.710442 0.030217 -4.700988
v -2.712727 0.030217 -4.806914
v -2.680732 0.030217 -4.798004
v -2.668544 0.030217 -4.854432
v -2.633503 0.030217 -4.823743
v -2.609126 0.030217 -4.860372
v -2.596176 0.030217 -4.816813
v -2.576370 0.030217 -4.830673
v -2.565706 0.030217 -4.798004
vn -0.0000 -1.0000 -0.0000
vn -0.0000 1.0000 -0.0000
vn -0.5253 -0.0000 0.8509
vn -0.0995 -0.0000 -0.9950
vn 0.9735 -0.0000 0.2289
vn -0.8898 -0.0000 -0.4564
vn -0.1825 -0.0000 0.9832
vn 0.6717 -0.0000 -0.7408
vn -0.1524 -0.0000 0.9883
vn -0.9374 -0.0000 -0.3482
vn 0.4785 -0.0000 0.8781
vn 0.9506 -0.0000 -0.3103
vn -0.7323 -0.0000 -0.6809
vn 0.9446 -0.0000 0.3283
vt 0.750000 0.490000
vt 0.750000 0.490000
vt 0.750000 0.490000
vt 0.750000 0.490000
vt 0.750000 0.490000
vt 0.750000 0.490000
vt 0.750000 0.490000
vt 0.750000 0.490000
vt 0.750000 0.490000
vt 0.750000 0.490000
vt 0.750000 0.490000
vt 0.750000 0.490000
vt 0.750000 0.490000
vt 0.750000 0.490000
vt 0.750000 0.490000
vt 0.750000 0.490000
vt 0.750000 0.490000
vt 0.750000 0.490000
vt 0.750000 0.490000
vt 0.750000 0.490000
vt 0.750000 0.490000
vt 0.750000 0.490000
vt 0.750000 0.490000
vt 0.750000 0.490000
s 1
usemtl Default_OBJ.001
f 1/1/1 4/4/1 3/3/1 2/2/1
f 4/4/1 6/6/1 5/5/1 3/3/1
f 6/6/1 8/8/1 7/7/1 5/5/1
f 8/8/1 10/10/1 9/9/1 7/7/1
f 11/11/1 12/12/1 9/9/1 10/10/1
f 13/13/2 16/16/2 15/15/2 14/14/2
f 14/14/2 15/15/2 18/18/2 17/17/2
f 17/17/2 18/18/2 20/20/2 19/19/2
f 19/19/2 20/20/2 22/22/2 21/21/2
f 23/23/2 21/21/2 22/22/2 24/24/2
f 12/12/3 24/24/3 22/22/3 9/9/3
f 8/8/4 19/19/4 21/21/4 10/10/4
f 3/3/5 15/15/5 16/16/5 2/2/5
f 1/1/6 13/13/6 14/14/6 4/4/6
f 9/9/7 22/22/7 20/20/7 7/7/7
f 10/10/8 21/21/8 23/23/8 11/11/8
f 2/2/9 16/16/9 13/13/9 1/1/9
f 4/4/10 14/14/10 17/17/10 6/6/10
f 7/7/11 20/20/11 18/18/11 5/5/11
f 11/11/12 23/23/12 24/24/12 12/12/12
f 6/6/13 17/17/13 19/19/13 8/8/13
f 5/5/14 18/18/14 15/15/14 3/3/14
