# Blender v3.2.2 OBJ File: 'untitled.blend'
# www.blender.org
mtllib pyramid.mtl
o Cube_Cube.003
v -0.257423 2.288324 0.866167
v -0.257423 2.288324 -1.133833
v 1.742577 2.288324 0.866167
v 1.742577 2.288324 -1.133833
v 0.742577 2.288324 -1.133833
v 0.742577 2.288324 0.866167
v -0.257423 2.288324 -0.133833
v 1.742577 2.288324 -0.133833
v 0.742577 2.288324 -0.133833
v 0.742577 4.808513 -0.133833
vt 0.750000 0.625000
vt 0.750000 0.750000
vt 0.875000 0.750000
vt 0.875000 0.625000
vt 0.625000 0.625000
vt 0.625000 0.750000
vt 0.625000 0.500000
vt 0.750000 0.500000
vt 0.875000 0.500000
vt 0.000000 0.000000
vn 0.0000 -1.0000 0.0000
vn 0.0000 0.3688 -0.9295
vn -0.9295 0.3688 0.0000
vn 0.0000 0.3688 0.9295
vn 0.9295 0.3688 0.0000
usemtl None
s off
f 9/1/1 6/2/1 1/3/1 7/4/1
f 8/5/1 3/6/1 6/2/1 9/1/1
f 4/7/1 8/5/1 9/1/1 5/8/1
f 5/8/1 9/1/1 7/4/1 2/9/1
f 4/7/2 5/8/2 2/9/2 10/10/2
f 2/9/3 7/4/3 1/3/3 10/10/3
f 1/3/4 6/2/4 3/6/4 10/10/4
f 3/6/5 8/5/5 4/7/5 10/10/5
l 9 10
