# Blender 3.2.2
# www.blender.org
mtllib sword1_Cube_001.mtl
o Cube.001
v -19.117395 0.122017 -1.968489
v -19.220873 0.122017 -2.079093
v -19.220873 -0.027729 -2.079093
v -19.117395 -0.027729 -1.968489
v -18.921270 -0.014090 -2.180528
v -18.995586 -0.014090 -2.259979
v -18.805218 -0.014090 -2.401152
v -18.767170 -0.014090 -2.310021
v -19.037968 -0.009255 -2.076110
v -19.108206 -0.009255 -2.151188
v -18.995628 0.000181 -2.243433
v -18.938438 0.000181 -2.182305
v -18.938438 0.094107 -2.182305
v -19.037968 0.103543 -2.076110
v -18.995586 0.108377 -2.259979
v -18.921270 0.108377 -2.180528
v -18.767170 0.108377 -2.310021
v -18.805220 0.108377 -2.401152
v -18.623030 -0.031480 -2.498497
v -18.589561 -0.031480 -2.380615
v -19.198490 -0.026062 -2.096934
v -19.198490 0.120349 -2.096934
v -19.098104 0.120349 -1.989636
v -18.623032 0.125769 -2.498496
v -18.589561 0.125769 -2.380614
v -18.361824 0.163239 -2.388104
v -18.397530 0.163239 -2.573050
v -18.397528 -0.068950 -2.573051
v -18.221594 0.163239 -2.574285
v -18.221594 -0.068950 -2.574286
v -18.361822 -0.068950 -2.388104
v -18.221594 -0.068950 -2.353625
v -18.221594 0.163239 -2.353625
v -18.995628 0.094107 -2.243433
v -19.108206 0.103543 -2.151188
v -19.046505 -0.012850 -2.062541
v -19.046505 0.107138 -2.062541
v -19.122313 -0.012850 -2.143571
v -19.098104 -0.026062 -1.989636
v -19.176502 -0.023674 -2.112403
v -19.081207 -0.023674 -2.010545
v -19.156160 -0.020531 -2.125135
v -19.067150 -0.020531 -2.029995
v -19.138094 -0.016792 -2.135294
v -19.055813 -0.016792 -2.047346
v -19.081207 0.117962 -2.010545
v -19.067150 0.114819 -2.029995
v -19.055813 0.111079 -2.047346
v -19.122313 0.107138 -2.143571
v -19.138094 0.111079 -2.135294
v -19.156160 0.114819 -2.125135
v -19.176502 0.117962 -2.112403
v -17.325792 0.122017 -1.968489
v -17.325792 -0.027729 -1.968489
v -17.222315 -0.027729 -2.079093
v -17.222315 0.122017 -2.079093
v -17.521917 -0.014090 -2.180528
v -17.676018 -0.014090 -2.310021
v -17.637970 -0.014090 -2.401152
v -17.447601 -0.014090 -2.259979
v -17.405220 -0.009255 -2.076110
v -17.504749 0.000181 -2.182305
v -17.447559 0.000181 -2.243433
v -17.334982 -0.009255 -2.151188
v -17.405220 0.103543 -2.076110
v -17.504749 0.094107 -2.182305
v -17.447601 0.108377 -2.259979
v -17.637968 0.108377 -2.401152
v -17.676018 0.108377 -2.310021
v -17.521917 0.108377 -2.180528
v -17.853626 -0.031480 -2.380615
v -17.820158 -0.031480 -2.498497
v -17.244698 -0.026062 -2.096934
v -17.244698 0.120349 -2.096934
v -17.345083 0.120349 -1.989636
v -17.820156 0.125769 -2.498496
v -18.045658 0.163239 -2.573050
v -18.081364 0.163239 -2.388104
v -17.853626 0.125769 -2.380614
v -18.045660 -0.068950 -2.573051
v -18.081366 -0.068950 -2.388104
v -17.447559 0.094107 -2.243433
v -17.334982 0.103543 -2.151188
v -17.396683 -0.012850 -2.062541
v -17.396683 0.107138 -2.062541
v -17.320875 -0.012850 -2.143571
v -17.345083 -0.026062 -1.989636
v -17.361980 -0.023674 -2.010545
v -17.266685 -0.023674 -2.112403
v -17.376038 -0.020531 -2.029995
v -17.287027 -0.020531 -2.125135
v -17.387375 -0.016792 -2.047346
v -17.305094 -0.016792 -2.135294
v -17.361980 0.117962 -2.010545
v -17.376038 0.114819 -2.029995
v -17.387375 0.111079 -2.047346
v -17.320875 0.107138 -2.143571
v -17.305094 0.111079 -2.135294
v -17.287027 0.114819 -2.125135
v -17.266685 0.117962 -2.112403
vn -0.7302 -0.0000 0.6832
vn -0.0000 -1.0000 -0.0000
vn -0.0646 -0.9977 0.0221
vn -0.0227 -0.9997 0.0078
vn 0.1385 -0.9818 -0.1296
vn 0.0829 -0.9935 -0.0775
vn 0.0473 -0.9979 -0.0443
vn 0.7929 -0.0000 0.6094
vn 0.7296 -0.0000 0.6838
vn -0.0000 1.0000 -0.0000
vn -0.0227 0.9997 0.0078
vn -0.0646 0.9977 0.0221
vn -0.7867 -0.0000 -0.6174
vn -0.5285 -0.0000 -0.8489
vn -0.1370 -0.9900 0.0338
vn -0.1136 -0.9930 0.0315
vn -0.6002 -0.0000 -0.7998
vn -0.6233 -0.0000 -0.7820
vn -0.6001 -0.0000 -0.7999
vn 0.0475 0.9979 -0.0446
vn 0.0592 0.9967 -0.0553
vn 0.0426 0.9983 -0.0399
vn -0.1370 0.9900 0.0338
vn -0.1136 0.9930 0.0315
vn -0.0645 0.9978 0.0147
vn -0.0608 0.9981 0.0139
vn 0.4863 -0.0000 0.8738
vn 0.3694 -0.0000 0.9293
vn -0.3789 -0.0000 -0.9254
vn -0.0070 -0.0000 -1.0000
vn 0.0329 -0.0000 0.9995
vn -0.3139 -0.0000 -0.9495
vn -0.0608 -0.9981 0.0139
vn -0.0645 -0.9978 0.0147
vn 1.0000 -0.0000 -0.0000
vn -0.2388 -0.0000 0.9711
vn -0.5720 -0.6218 0.5350
vn -0.1030 -0.0000 0.9947
vn -0.8951 -0.0000 -0.4459
vn -0.5720 0.6218 0.5350
vn 0.6433 -0.0000 0.7656
vn 0.0473 0.9979 -0.0443
vn 0.0829 0.9935 -0.0775
vn 0.1385 0.9818 -0.1296
vn -0.5418 -0.0000 -0.8405
vn 0.8499 -0.0000 0.5269
vn 0.1636 -0.9746 -0.1532
vn 0.1643 -0.9744 -0.1537
vn 0.0426 -0.9983 -0.0399
vn 0.0592 -0.9967 -0.0553
vn 0.0475 -0.9979 -0.0446
vn 0.0875 -0.9928 -0.0819
vn 0.0717 -0.9952 -0.0672
vn 0.1221 -0.9859 -0.1143
vn 0.1039 -0.9898 -0.0972
vn 0.1537 -0.9776 -0.1438
vn 0.1392 -0.9816 -0.1304
vn 0.7388 -0.0000 0.6739
vn 0.7575 -0.0000 0.6528
vn 0.7574 -0.0000 0.6530
vn 0.7931 -0.0000 0.6091
vn 0.7930 -0.0000 0.6092
vn 0.8227 -0.0000 0.5685
vn 0.8440 -0.0000 0.5363
vn 0.1640 0.9745 -0.1534
vn 0.1636 0.9746 -0.1532
vn 0.1537 0.9776 -0.1438
vn 0.1392 0.9816 -0.1304
vn 0.1221 0.9859 -0.1143
vn 0.1039 0.9898 -0.0972
vn 0.0875 0.9928 -0.0819
vn 0.0717 0.9952 -0.0672
vn -0.4688 -0.0000 -0.8833
vn -0.4792 -0.0000 -0.8777
vn -0.5125 -0.0000 -0.8587
vn -0.5544 -0.0000 -0.8323
vn 0.7302 -0.0000 0.6832
vn 0.0227 -0.9997 0.0078
vn 0.0646 -0.9977 0.0221
vn -0.1385 -0.9818 -0.1296
vn -0.0473 -0.9979 -0.0443
vn -0.0829 -0.9935 -0.0775
vn -0.7929 -0.0000 0.6094
vn -0.7296 -0.0000 0.6838
vn 0.0646 0.9977 0.0221
vn 0.0227 0.9997 0.0078
vn 0.7867 -0.0000 -0.6174
vn 0.5285 -0.0000 -0.8489
vn 0.1136 -0.9930 0.0315
vn 0.1370 -0.9900 0.0338
vn 0.6005 -0.0000 -0.7996
vn 0.6233 -0.0000 -0.7820
vn -0.0475 0.9979 -0.0446
vn -0.0426 0.9983 -0.0399
vn -0.0592 0.9967 -0.0553
vn 0.1370 0.9900 0.0338
vn 0.0608 0.9981 0.0139
vn 0.0645 0.9978 0.0147
vn 0.1136 0.9930 0.0315
vn -0.4863 -0.0000 0.8738
vn -0.3694 -0.0000 0.9293
vn 0.3789 -0.0000 -0.9254
vn 0.0070 -0.0000 -1.0000
vn -0.0329 -0.0000 0.9995
vn 0.3139 -0.0000 -0.9495
vn 0.0645 -0.9978 0.0147
vn 0.0608 -0.9981 0.0139
vn 0.2388 -0.0000 0.9711
vn 0.5720 -0.6218 0.5350
vn 0.1030 -0.0000 0.9947
vn 0.8951 -0.0000 -0.4459
vn 0.5720 0.6218 0.5350
vn -0.6433 -0.0000 0.7656
vn -0.0473 0.9979 -0.0443
vn -0.1385 0.9818 -0.1296
vn -0.0829 0.9935 -0.0775
vn 0.5418 -0.0000 -0.8405
vn -0.8499 -0.0000 0.5269
vn -0.1635 -0.9746 -0.1531
vn -0.1640 -0.9745 -0.1534
vn -0.0426 -0.9983 -0.0399
vn -0.0475 -0.9979 -0.0446
vn -0.0592 -0.9967 -0.0553
vn -0.0717 -0.9952 -0.0672
vn -0.0875 -0.9928 -0.0819
vn -0.1039 -0.9898 -0.0972
vn -0.1221 -0.9859 -0.1143
vn -0.1392 -0.9816 -0.1304
vn -0.1537 -0.9776 -0.1438
vn -0.7388 -0.0000 0.6739
vn -0.7574 -0.0000 0.6529
vn -0.7931 -0.0000 0.6091
vn -0.8226 -0.0000 0.5686
vn -0.8226 -0.0000 0.5687
vn -0.8441 -0.0000 0.5362
vn -0.8443 -0.0000 0.5359
vn -0.1635 0.9746 -0.1531
vn -0.1640 0.9745 -0.1534
vn -0.1392 0.9816 -0.1304
vn -0.1537 0.9776 -0.1438
vn -0.1039 0.9898 -0.0972
vn -0.1221 0.9859 -0.1143
vn -0.0717 0.9952 -0.0672
vn -0.0875 0.9928 -0.0819
vn 0.4687 -0.0000 -0.8834
vn 0.4791 -0.0000 -0.8778
vn 0.5124 -0.0000 -0.8588
vn 0.5543 -0.0000 -0.8323
vt 0.375000 0.000000
vt 0.375000 1.000000
vt 0.125000 0.750000
vt 0.625000 0.000000
vt 0.875000 0.750000
vt 0.625000 1.000000
vt 0.875000 0.500000
vt 0.625000 0.250000
vt 0.375000 0.250000
vt 0.125000 0.500000
vt 0.375000 0.500000
vt 0.625000 0.500000
vt 0.625000 0.500000
vt 0.375000 0.500000
vt 0.235649 0.500000
vt 0.375000 0.360649
vt 0.625000 0.360649
vt 0.764351 0.500000
vt 0.625000 0.495100
vt 0.629900 0.500000
vt 0.375000 0.495100
vt 0.370100 0.500000
vt 0.370100 0.750000
vt 0.375000 0.754900
vt 0.235649 0.750000
vt 0.375000 0.889351
vt 0.625000 0.750000
vt 0.375000 0.750000
vt 0.375000 0.750000
vt 0.625000 0.750000
vt 0.625000 0.500000
vt 0.375000 0.500000
vt 0.625000 0.268441
vt 0.856559 0.500000
vt 0.625000 0.981558
vt 0.856559 0.750000
vt 0.143441 0.750000
vt 0.375000 0.981559
vt 0.625000 0.750000
vt 0.375000 0.750000
vt 0.375000 0.750000
vt 0.625000 0.750000
vt 0.625000 0.500000
vt 0.625000 0.750000
vt 0.625000 0.500000
vt 0.375000 0.500000
vt 0.375000 0.500000
vt 0.375000 0.750000
vt 0.625000 0.754900
vt 0.629900 0.750000
vt 0.625000 0.889351
vt 0.764351 0.750000
vt 0.375000 0.342207
vt 0.217207 0.500000
vt 0.217207 0.750000
vt 0.375000 0.907793
vt 0.625000 0.342207
vt 0.782793 0.500000
vt 0.375000 0.268441
vt 0.143441 0.500000
vt 0.625000 0.286883
vt 0.838117 0.500000
vt 0.375000 0.286883
vt 0.161883 0.500000
vt 0.625000 0.305324
vt 0.819676 0.500000
vt 0.375000 0.305324
vt 0.180324 0.500000
vt 0.625000 0.323766
vt 0.801234 0.500000
vt 0.375000 0.323766
vt 0.198766 0.500000
vt 0.161883 0.750000
vt 0.375000 0.963117
vt 0.180324 0.750000
vt 0.375000 0.944676
vt 0.198766 0.750000
vt 0.375000 0.926234
vt 0.625000 0.907793
vt 0.782793 0.750000
vt 0.625000 0.926234
vt 0.801234 0.750000
vt 0.625000 0.944676
vt 0.819676 0.750000
vt 0.625000 0.963117
vt 0.838117 0.750000
vt 0.375000 0.000000
vt 0.375000 1.000000
vt 0.125000 0.750000
vt 0.375000 0.250000
vt 0.125000 0.500000
vt 0.875000 0.500000
vt 0.625000 0.250000
vt 0.625000 0.000000
vt 0.875000 0.750000
vt 0.625000 1.000000
vt 0.375000 0.500000
vt 0.375000 0.500000
vt 0.625000 0.500000
vt 0.625000 0.500000
vt 0.235649 0.500000
vt 0.375000 0.360649
vt 0.375000 0.495100
vt 0.370100 0.500000
vt 0.625000 0.495100
vt 0.629900 0.500000
vt 0.625000 0.360649
vt 0.764351 0.500000
vt 0.235649 0.750000
vt 0.375000 0.889351
vt 0.370100 0.750000
vt 0.375000 0.754900
vt 0.625000 0.750000
vt 0.625000 0.750000
vt 0.375000 0.750000
vt 0.375000 0.750000
vt 0.375000 0.500000
vt 0.625000 0.500000
vt 0.625000 0.268441
vt 0.856559 0.500000
vt 0.625000 0.981558
vt 0.856559 0.750000
vt 0.143441 0.750000
vt 0.375000 0.981559
vt 0.625000 0.750000
vt 0.625000 0.750000
vt 0.375000 0.750000
vt 0.375000 0.750000
vt 0.625000 0.500000
vt 0.375000 0.500000
vt 0.625000 0.754900
vt 0.629900 0.750000
vt 0.625000 0.889351
vt 0.764351 0.750000
vt 0.375000 0.342207
vt 0.217207 0.500000
vt 0.217207 0.750000
vt 0.375000 0.907793
vt 0.625000 0.342207
vt 0.782793 0.500000
vt 0.375000 0.268441
vt 0.143441 0.500000
vt 0.375000 0.286883
vt 0.161883 0.500000
vt 0.625000 0.286883
vt 0.838117 0.500000
vt 0.375000 0.305324
vt 0.180324 0.500000
vt 0.625000 0.305324
vt 0.819676 0.500000
vt 0.375000 0.323766
vt 0.198766 0.500000
vt 0.625000 0.323766
vt 0.801234 0.500000
vt 0.161883 0.750000
vt 0.375000 0.963117
vt 0.180324 0.750000
vt 0.375000 0.944676
vt 0.198766 0.750000
vt 0.375000 0.926234
vt 0.625000 0.907793
vt 0.782793 0.750000
vt 0.625000 0.926234
vt 0.801234 0.750000
vt 0.625000 0.944676
vt 0.819676 0.750000
vt 0.625000 0.963117
vt 0.838117 0.750000
s 1
usemtl Default_OBJ
f 1/1/1 2/4/1 3/8/1 4/9/1
f 5/11/2 6/12/2 7/13/3 8/14/4
f 9/16/5 10/17/6 11/19/7 12/21/7
f 9/15/8 12/22/9 13/23/9 14/25/8
f 15/27/10 16/28/10 17/29/11 18/30/12
f 6/12/13 15/27/13 18/30/14 7/13/14
f 8/14/4 7/13/3 19/31/15 20/32/16
f 21/34/17 3/7/18 2/5/18 22/36/19
f 23/38/20 22/35/21 2/6/22 1/2/22
f 24/39/23 25/40/24 26/41/25 27/42/26
f 18/30/12 17/29/11 25/40/24 24/39/23
f 17/29/27 8/14/27 20/32/28 25/40/28
f 7/13/14 18/30/14 24/39/29 19/31/29
f 28/43/30 27/42/30 29/44/30 30/45/30
f 25/40/31 20/32/31 31/46/31 26/41/31
f 19/31/29 24/39/29 27/42/32 28/43/32
f 20/32/16 19/31/15 28/43/33 31/46/34
f 32/47/35 30/45/35 29/44/35 33/48/35
f 31/46/34 28/43/33 30/45/2 32/47/2
f 27/42/26 26/41/25 33/48/10 29/44/10
f 26/41/36 31/46/36 32/47/36 33/48/36
f 6/12/37 5/11/37 12/21/37 11/19/37
f 13/23/38 12/22/38 5/11/38 16/28/38
f 11/20/39 34/50/39 15/27/13 6/12/13
f 34/49/40 13/24/40 16/28/40 15/27/40
f 16/28/41 5/11/41 8/14/27 17/29/27
f 13/24/42 34/49/42 35/51/43 14/26/44
f 11/20/39 10/18/45 35/52/45 34/50/39
f 36/54/46 9/15/8 14/25/8 37/55/46
f 36/53/47 38/57/48 10/17/6 9/16/5
f 4/9/49 3/8/49 21/33/50 39/59/51
f 39/59/51 21/33/50 40/61/52 41/63/53
f 41/63/53 40/61/52 42/65/54 43/67/55
f 43/67/55 42/65/54 44/69/56 45/71/57
f 45/71/57 44/69/56 38/57/48 36/53/47
f 4/10/58 39/60/59 23/37/60 1/3/58
f 39/60/59 41/64/61 46/73/62 23/37/60
f 41/64/61 43/68/63 47/75/63 46/73/62
f 43/68/63 45/72/64 48/77/64 47/75/63
f 45/72/64 36/54/46 37/55/46 48/77/64
f 14/26/44 35/51/43 49/79/65 37/56/66
f 37/56/66 49/79/65 50/81/67 48/78/68
f 48/78/68 50/81/67 51/83/69 47/76/70
f 47/76/70 51/83/69 52/85/71 46/74/72
f 46/74/72 52/85/71 22/35/21 23/38/20
f 10/18/45 38/58/73 49/80/73 35/52/45
f 38/58/73 44/70/74 50/82/74 49/80/73
f 44/70/74 42/66/75 51/84/75 50/82/74
f 42/66/75 40/62/76 52/86/76 51/84/75
f 40/62/76 21/34/17 22/36/19 52/86/76
f 53/87/77 54/90/77 55/93/77 56/94/77
f 57/97/2 58/98/78 59/99/79 60/100/2
f 61/102/80 62/103/81 63/105/81 64/107/82
f 61/101/83 65/109/83 66/111/84 62/104/84
f 67/113/10 68/114/85 69/115/86 70/116/10
f 60/100/87 59/99/88 68/114/88 67/113/87
f 58/98/78 71/117/89 72/118/90 59/99/79
f 73/120/91 74/122/91 56/95/92 55/92/92
f 75/124/93 53/88/94 56/96/94 74/121/95
f 76/125/96 77/126/97 78/127/98 79/128/99
f 68/114/85 76/125/96 79/128/99 69/115/86
f 69/115/100 79/128/101 71/117/101 58/98/100
f 59/99/88 72/118/102 76/125/102 68/114/88
f 80/129/103 30/45/103 29/44/103 77/126/103
f 79/128/104 78/127/104 81/130/104 71/117/104
f 72/118/102 80/129/105 77/126/105 76/125/102
f 71/117/89 81/130/106 80/129/107 72/118/90
f 81/130/106 32/47/2 30/45/2 80/129/107
f 77/126/97 29/44/10 33/48/10 78/127/98
f 78/127/108 33/48/108 32/47/108 81/130/108
f 60/100/109 63/105/109 62/103/109 57/97/109
f 66/111/110 70/116/110 57/97/110 62/104/110
f 63/106/111 60/100/87 67/113/87 82/132/111
f 82/131/112 67/113/112 70/116/112 66/112/112
f 70/116/113 69/115/100 58/98/100 57/97/113
f 66/112/114 65/110/115 83/133/116 82/131/114
f 63/106/111 82/132/111 83/134/117 64/108/117
f 84/136/118 85/137/118 65/109/83 61/101/83
f 84/135/119 61/102/80 64/107/82 86/139/120
f 54/90/121 87/141/122 73/119/123 55/93/121
f 87/141/122 88/143/124 89/145/125 73/119/123
f 88/143/124 90/147/126 91/149/127 89/145/125
f 90/147/126 92/151/128 93/153/129 91/149/127
f 92/151/128 84/135/119 86/139/120 93/153/129
f 54/91/130 53/89/130 75/123/131 87/142/131
f 87/142/131 75/123/131 94/155/132 88/144/132
f 88/144/132 94/155/132 95/157/133 90/148/134
f 90/148/134 95/157/133 96/159/135 92/152/136
f 92/152/136 96/159/135 85/137/118 84/136/118
f 65/110/115 85/138/137 97/161/138 83/133/116
f 85/138/137 96/160/139 98/163/140 97/161/138
f 96/160/139 95/158/141 99/165/142 98/163/140
f 95/158/141 94/156/143 100/167/144 99/165/142
f 94/156/143 75/124/93 74/121/95 100/167/144
f 64/108/117 83/134/117 97/162/145 86/140/145
f 86/140/145 97/162/145 98/164/146 93/154/146
f 93/154/146 98/164/146 99/166/147 91/150/147
f 91/150/147 99/166/147 100/168/148 89/146/148
f 89/146/148 100/168/148 74/122/91 73/120/91
