# Blender 3.2.2
# www.blender.org
mtllib window_1Cube_002.mtl
o Cube.002
v -1.000000 -0.133685 -0.028595
v -1.000000 1.921444 -0.028595
v -1.000000 -0.133685 0.028595
v -1.000000 1.921444 0.028595
v 0.000000 -0.133685 0.028595
v 0.000000 1.921444 0.028595
v 0.000000 -0.133685 -0.028595
v 0.000000 1.921444 -0.028595
v -0.601760 2.882266 -0.028595
v -0.601760 2.882266 0.028595
v 0.000000 2.882266 0.028595
v 0.000000 2.882266 -0.028595
v -0.154487 3.512314 -0.028595
v -0.154487 3.512314 0.028595
v 0.000000 3.512314 0.028595
v 0.000000 3.512314 -0.028595
v 1.000000 -0.133685 -0.028595
v 1.000000 1.921444 -0.028595
v 1.000000 -0.133685 0.028595
v 1.000000 1.921444 0.028595
v 0.601760 2.882266 -0.028595
v 0.601760 2.882266 0.028595
v 0.154487 3.512314 -0.028595
v 0.154487 3.512314 0.028595
vn -1.0000 -0.0000 -0.0000
vn -0.0000 -0.0000 -1.0000
vn -0.0000 -0.0000 1.0000
vn -0.0000 -1.0000 -0.0000
vn -0.9238 0.3829 -0.0000
vn -0.0000 1.0000 -0.0000
vn -0.8154 0.5789 -0.0000
vn 1.0000 -0.0000 -0.0000
vn 0.9238 0.3829 -0.0000
vn 0.8154 0.5789 -0.0000
vt 0.375000 0.000000
vt 0.375000 1.000000
vt 0.125000 0.750000
vt 0.625000 0.000000
vt 0.625000 1.000000
vt 0.125000 0.500000
vt 0.375000 0.250000
vt 0.625000 0.250000
vt 0.250000 0.500000
vt 0.375000 0.375000
vt 0.625000 0.375000
vt 0.375000 0.875000
vt 0.250000 0.750000
vt 0.625000 0.875000
vt 0.625000 1.000000
vt 0.625000 0.000000
vt 0.625000 0.250000
vt 0.625000 0.375000
vt 0.625000 0.875000
vt 0.625000 1.000000
vt 0.875000 0.750000
vt 0.625000 0.000000
vt 0.875000 0.500000
vt 0.625000 0.250000
vt 0.750000 0.500000
vt 0.625000 0.375000
vt 0.625000 0.875000
vt 0.750000 0.750000
vt 0.375000 0.000000
vt 0.375000 1.000000
vt 0.125000 0.750000
vt 0.625000 0.000000
vt 0.625000 1.000000
vt 0.125000 0.500000
vt 0.375000 0.250000
vt 0.625000 0.250000
vt 0.625000 1.000000
vt 0.625000 0.000000
vt 0.625000 0.250000
vt 0.625000 1.000000
vt 0.875000 0.750000
vt 0.625000 0.000000
vt 0.875000 0.500000
vt 0.625000 0.250000
s 0
f 1/1/1 3/7/1 4/8/1 2/4/1
f 7/12/2 1/2/2 2/5/2 8/14/2
f 6/11/3 11/18/3 10/17/3 4/8/3
f 3/6/4 1/3/4 7/13/4 5/9/4
f 3/7/3 5/10/3 6/11/3 4/8/3
f 9/15/2 13/20/2 16/27/2 12/19/2
f 4/8/5 10/17/5 9/16/5 2/4/5
f 2/5/2 9/15/2 12/19/2 8/14/2
f 15/25/6 16/28/6 13/21/6 14/23/6
f 11/18/3 15/26/3 14/24/3 10/17/3
f 10/17/7 14/24/7 13/22/7 9/16/7
f 17/29/8 18/32/8 20/36/8 19/35/8
f 7/12/2 8/14/2 18/33/2 17/30/2
f 6/11/3 20/36/3 22/39/3 11/18/3
f 19/34/4 5/9/4 7/13/4 17/31/4
f 19/35/3 20/36/3 6/11/3 5/10/3
f 21/37/2 12/19/2 16/27/2 23/40/2
f 20/36/9 18/32/9 21/38/9 22/39/9
f 18/33/2 8/14/2 12/19/2 21/37/2
f 15/25/6 24/43/6 23/41/6 16/28/6
f 11/18/3 22/39/3 24/44/3 15/26/3
f 22/39/10 21/38/10 23/42/10 24/44/10
